<mxfile host="app.diagrams.net" agent="Mozilla/5.0 (Windows NT 10.0; Win64; x64) AppleWebKit/537.36 (KHTML, like Gecko) Chrome/136.0.0.0 Safari/537.36" version="27.0.6">
  <diagram name="Page-1" id="eQ45xa2Mkc43eKDzL2Ob">
    <mxGraphModel dx="3679" dy="1486" grid="1" gridSize="10" guides="1" tooltips="1" connect="1" arrows="1" fold="1" page="1" pageScale="1" pageWidth="827" pageHeight="1169" math="0" shadow="0">
      <root>
        <mxCell id="0" />
        <mxCell id="1" parent="0" />
        <mxCell id="YV60pAs2Tr7pZxrX32TB-15" value="" style="rounded=0;whiteSpace=wrap;html=1;" vertex="1" parent="1">
          <mxGeometry x="-406" y="120" width="2220" height="1050" as="geometry" />
        </mxCell>
        <mxCell id="YV60pAs2Tr7pZxrX32TB-11" style="edgeStyle=orthogonalEdgeStyle;rounded=0;orthogonalLoop=1;jettySize=auto;html=1;exitX=1;exitY=0.5;exitDx=0;exitDy=0;entryX=0.5;entryY=0;entryDx=0;entryDy=0;" edge="1" parent="1" source="YV60pAs2Tr7pZxrX32TB-1" target="YV60pAs2Tr7pZxrX32TB-8">
          <mxGeometry relative="1" as="geometry" />
        </mxCell>
        <mxCell id="YV60pAs2Tr7pZxrX32TB-1" value="" style="rounded=0;whiteSpace=wrap;html=1;" vertex="1" parent="1">
          <mxGeometry y="250" width="190" height="170" as="geometry" />
        </mxCell>
        <mxCell id="KprNJMr5oBxklghAawLk-1" value="AWS Cloud" style="points=[[0,0],[0.25,0],[0.5,0],[0.75,0],[1,0],[1,0.25],[1,0.5],[1,0.75],[1,1],[0.75,1],[0.5,1],[0.25,1],[0,1],[0,0.75],[0,0.5],[0,0.25]];outlineConnect=0;gradientColor=none;html=1;whiteSpace=wrap;fontSize=12;fontStyle=0;container=1;pointerEvents=0;collapsible=0;recursiveResize=0;shape=mxgraph.aws4.group;grIcon=mxgraph.aws4.group_aws_cloud;strokeColor=#232F3E;fillColor=none;verticalAlign=top;align=left;spacingLeft=30;fontColor=#232F3E;dashed=0;" parent="1" vertex="1">
          <mxGeometry x="-80" y="170" width="330" height="710" as="geometry" />
        </mxCell>
        <mxCell id="YV60pAs2Tr7pZxrX32TB-2" value="" style="rounded=0;whiteSpace=wrap;html=1;" vertex="1" parent="KprNJMr5oBxklghAawLk-1">
          <mxGeometry x="76" y="435" width="190" height="170" as="geometry" />
        </mxCell>
        <mxCell id="KprNJMr5oBxklghAawLk-2" value="" style="sketch=0;outlineConnect=0;fontColor=#232F3E;gradientColor=none;fillColor=#7AA116;strokeColor=none;dashed=0;verticalLabelPosition=bottom;verticalAlign=top;align=center;html=1;fontSize=12;fontStyle=0;aspect=fixed;pointerEvents=1;shape=mxgraph.aws4.bucket;" parent="KprNJMr5oBxklghAawLk-1" vertex="1">
          <mxGeometry x="120" y="100" width="105.77" height="110" as="geometry" />
        </mxCell>
        <mxCell id="KprNJMr5oBxklghAawLk-3" value="" style="sketch=0;points=[[0,0,0],[0.25,0,0],[0.5,0,0],[0.75,0,0],[1,0,0],[0,1,0],[0.25,1,0],[0.5,1,0],[0.75,1,0],[1,1,0],[0,0.25,0],[0,0.5,0],[0,0.75,0],[1,0.25,0],[1,0.5,0],[1,0.75,0]];outlineConnect=0;fontColor=#232F3E;fillColor=#C925D1;strokeColor=#ffffff;dashed=0;verticalLabelPosition=bottom;verticalAlign=top;align=center;html=1;fontSize=12;fontStyle=0;aspect=fixed;shape=mxgraph.aws4.resourceIcon;resIcon=mxgraph.aws4.rds;" parent="KprNJMr5oBxklghAawLk-1" vertex="1">
          <mxGeometry x="116.38" y="453" width="113" height="113" as="geometry" />
        </mxCell>
        <mxCell id="YV60pAs2Tr7pZxrX32TB-3" value="" style="rounded=0;whiteSpace=wrap;html=1;" vertex="1" parent="1">
          <mxGeometry x="-340" y="250" width="190" height="170" as="geometry" />
        </mxCell>
        <mxCell id="YV60pAs2Tr7pZxrX32TB-4" value="" style="rounded=0;whiteSpace=wrap;html=1;" vertex="1" parent="1">
          <mxGeometry x="-340" y="610" width="190" height="170" as="geometry" />
        </mxCell>
        <mxCell id="YV60pAs2Tr7pZxrX32TB-5" value="" style="rounded=1;whiteSpace=wrap;html=1;" vertex="1" parent="1">
          <mxGeometry x="-340" y="960" width="1930" height="180" as="geometry" />
        </mxCell>
        <mxCell id="YV60pAs2Tr7pZxrX32TB-6" value="" style="sketch=0;outlineConnect=0;fontColor=#232F3E;gradientColor=none;fillColor=#E7157B;strokeColor=none;dashed=0;verticalLabelPosition=bottom;verticalAlign=top;align=center;html=1;fontSize=12;fontStyle=0;aspect=fixed;pointerEvents=1;shape=mxgraph.aws4.logs;" vertex="1" parent="1">
          <mxGeometry x="-278.5" y="280" width="68.69" height="94" as="geometry" />
        </mxCell>
        <mxCell id="YV60pAs2Tr7pZxrX32TB-7" value="" style="sketch=0;outlineConnect=0;fontColor=#232F3E;gradientColor=none;fillColor=#E7157B;strokeColor=none;dashed=0;verticalLabelPosition=bottom;verticalAlign=top;align=center;html=1;fontSize=12;fontStyle=0;aspect=fixed;pointerEvents=1;shape=mxgraph.aws4.documents;" vertex="1" parent="1">
          <mxGeometry x="-280.5" y="650" width="73.85" height="90" as="geometry" />
        </mxCell>
        <mxCell id="YV60pAs2Tr7pZxrX32TB-13" style="edgeStyle=orthogonalEdgeStyle;rounded=0;orthogonalLoop=1;jettySize=auto;html=1;exitX=1;exitY=0.5;exitDx=0;exitDy=0;entryX=0;entryY=0.5;entryDx=0;entryDy=0;" edge="1" parent="1" source="YV60pAs2Tr7pZxrX32TB-8" target="YV60pAs2Tr7pZxrX32TB-9">
          <mxGeometry relative="1" as="geometry" />
        </mxCell>
        <mxCell id="YV60pAs2Tr7pZxrX32TB-8" value="" style="rounded=0;whiteSpace=wrap;html=1;" vertex="1" parent="1">
          <mxGeometry x="340" y="415" width="190" height="170" as="geometry" />
        </mxCell>
        <mxCell id="YV60pAs2Tr7pZxrX32TB-9" value="" style="rounded=0;whiteSpace=wrap;html=1;" vertex="1" parent="1">
          <mxGeometry x="650" y="415" width="190" height="170" as="geometry" />
        </mxCell>
        <mxCell id="YV60pAs2Tr7pZxrX32TB-10" style="edgeStyle=orthogonalEdgeStyle;rounded=0;orthogonalLoop=1;jettySize=auto;html=1;exitX=0.5;exitY=0;exitDx=0;exitDy=0;entryX=0.974;entryY=0.341;entryDx=0;entryDy=0;entryPerimeter=0;" edge="1" parent="1" source="YV60pAs2Tr7pZxrX32TB-9" target="YV60pAs2Tr7pZxrX32TB-1">
          <mxGeometry relative="1" as="geometry" />
        </mxCell>
        <mxCell id="YV60pAs2Tr7pZxrX32TB-12" style="edgeStyle=orthogonalEdgeStyle;rounded=0;orthogonalLoop=1;jettySize=auto;html=1;exitX=1;exitY=0.5;exitDx=0;exitDy=0;entryX=0.5;entryY=1;entryDx=0;entryDy=0;" edge="1" parent="1" source="YV60pAs2Tr7pZxrX32TB-2" target="YV60pAs2Tr7pZxrX32TB-8">
          <mxGeometry relative="1" as="geometry" />
        </mxCell>
        <mxCell id="YV60pAs2Tr7pZxrX32TB-14" value="" style="rounded=0;whiteSpace=wrap;html=1;" vertex="1" parent="1">
          <mxGeometry x="970" y="420" width="190" height="170" as="geometry" />
        </mxCell>
        <mxCell id="YV60pAs2Tr7pZxrX32TB-16" value="" style="shape=image;verticalLabelPosition=bottom;labelBackgroundColor=default;verticalAlign=top;aspect=fixed;imageAspect=0;image=data:image/png,iVBORw0KGgoAAAANSUhEUgAABLAAAASwCAYAAADrIbPPAAAACXBIWXMAACxLAAAsSwGlPZapAAAAAXNSR0IArs4c6QAAAARnQU1BAACxjwv8YQUAAITWSURBVHgB7P0LtJ51fej7/uZ9JjOZmQFCgEQTFcTQw02t4B6ngWqlS+3xvnXoGEuF7tPRHu2i9pzWOqqrgK16at2FFhbavV0S2qWja2PRjgp77dYCa3W13lpAV7FWMEESbhEyk5CZeX/3/L/hhZn7vLyX//M8n88Y75i5waCVOcP7ze/3e7pqcwIAAAAA8lTrDgAAAADImIAFAAAAQNYELAAAAACyJmABAAAAkDUBCwAAAICsCVgAAAAAZE3AAgAAACBrAhYAAAAAWROwAAAAAMiagAUAAABA1gQsAAAAALImYAEAAACQNQELAAAAgKwJWAAAAABkTcACAAAAIGsCFgAAAABZE7AAAAAAyJqABQAAAEDWBCwAAAAAsiZgAQAAAJA1AQsAAACArAlYAAAAAGRNwAIAAAAgawIWAAAAAFkTsAAAAADImoAFAAAAQNYELAAAAACyJmABAAAAkDUBCwAAAICsCVgAAAAAZE3AAgAAACBrAhYAAAAAWROwAAAAAMiagAUAAABA1gQsAAAAALImYAEAAACQNQELAAAAgKwJWAAAAABkTcACAAAAIGsCFgAAAABZE7AAAAAAyJqABQAAAEDWBCwAAAAAsiZgAQAAAJA1AQsAAACArAlYAAAAAGRNwAIAAAAgawIWAAAAAFkTsAAAAADImoAFAAAAQNYELAAAAACyJmABAAAAkDUBCwAAAICsCVgAAAAAZE3AAgAAACBrAhYAAAAAWROwAAAAAMiagAUAAABA1gQsAAAAALImYAEAAACQNQELAAAAgKwJWAAAAABkTcACAAAAIGsCFgAAAABZE7AAAAAAyJqABQAAAEDWBCwAAAAAsiZgAQAAAJA1AQsAAACArAlYAAAAAGRNwAIAAAAgawIWAAAAAFkTsAAAAADImoAFAAAAQNYELAAAAACyJmABAAAAkDUBCwAAAICsCVgAAAAAZE3AAgAAACBrAhYAAAAAWROwAAAAAMiagAUAAABA1gQsAAAAALImYAEAAACQNQELAAAAgKwJWAAAAABkTcACAAAAIGsCFgAAAABZE7AAAAAAyJqABQAAAEDWBCwAAAAAsiZgAQAAAJA1AQsAAACArAlYAAAAAGRNwAIAAAAgawIWAAAAAFkTsAAAAADImoAFAAAAQNYELAAAAACyJmABAAAAkDUBCwAAAICsCVgAAAAAZE3AAgAAACBrAhYAAAAAWROwAAAAAMiagAUAAABA1gQsAAAAALImYAEAAACQNQELAAAAgKwJWAAAAABkTcACAAAAIGsCFgAAAABZE7AAAAAAyJqABQAAAEDWBCwAAAAAsiZgAQAAAJA1AQsAAACArAlYAAAAAGRNwAIAAAAgawIWAAAAAFkTsAAAAADImoAFAAAAQNYELAAAAACyJmABAAAAkDUBCwAAAICsCVgAAAAAZE3AAgAAACBrAhYAAAAAWROwAAAAAMiagAUAAABA1gQsAAAAALImYAEAAACQNQELAAAAgKwJWAAAAABkTcACAAAAIGsCFgAAAABZE7AAAAAAyJqABQAAAEDWBCwAAAAAsiZgAQAAAJA1AQsAAACArAlYAAAAAGRNwAIAAAAgawIWAAAAAFkTsAAAAADImoAFAAAAQNYELAAAAACyJmABAAAAkDUBCwAAAICsCVgAAAAAZE3AAgAAACBrAhYAAAAAWROwAAAAAMiagAUAAABA1gQsAAAAALImYAEAAACQNQELAAAAgKwJWAAAAABkTcACAAAAIGsCFgAAAABZE7AAAAAAyJqABQAAAEDWBCwAAAAIIGcCFgAAAABZE7AAAAAAyJqABQAAAEDWBCwAAAAAsiZgAQAAAJA1AQsAAACArAlYAAAAAGRNwAIAAAAgawIWAAAAAFkTsAAAAADImoAFAAAAQNYELAAAAACyJmABAAAAkDUBCwAAAICsCVgAAAAAZE3AAgAAACBrAhYAAAAAWROwAAAAAMiagAUAAABA1gQsAAAAALImYAEAAACQNQELAAAAgKwJWAAAAABkTcACAAAAIGsCFgAAAABZE7AAAAAAyJqABQAAAEDWBCwAAAAAstYbwDFNP7Yzpn/4/fq3u1avPuGv7V41HF1zr2PpST+3ejgAAACApRGw4Ahjd3w5xr52W0zc+81otd4zNx71YymEda86Opj1HOPXHvlj3auH6zHtue/X49nhf6+eMzae9J8BAABoj9Hpmbh734EYnZmJkZ6e2DzQHxcNDQZwuK7anACitn9f7L3h43FgLmBVVZoU65kXwHrO2PDct7vnTZJ1HzFV1ohgRwazRiwzhQYAAIe7b+xgfGjHE/V4daTNA31xzcbT433rRgKoqwlY8Kw9v/sb9ekrWmt+JGsEsvlBrDFV1pgmmx/FGquaghgAAEV2w+NPxa/tePykv+79cwHrDzedESO9PQEVJ2BBksJVClgUSyOGzV+7bASwxsfe575/KJY1psKsTgIA0AkLjVcNKWJ94SUbAipOwILk8bdvjZnHdgbVk0JWI4A1JsHmx6/GBFhj+kv4AgBgqbbtHo33P7QrFuuWuYBlnZCKqzniTuVN/esD4lWFTS/xf/sUshorkD3Pha7ho6JX7xkbrTsCALDkeJXcMvfXClhUnYBF5U0/vrTfRKi2FL6ei18LeGLl/EmvI4NXWm804QUAUF7LiVdJOvS+Y2KqftwdqkrAovJqz+wLaLXDJr1OErzqYeuMjc/FrnrwWt2Y5lpdv+MldAEAFMNy41XDjolJAYtKE7CovK5V1rvIS23/vpja/8Ch75wgdh0rdM2f6LK+CADQWfeNHWxKvEpGZ2YDqkzAovIGXn5JQBEtNHT1nXPeUdNcfedsEbkAAFooxauffWBHNMtIT3dAlQlYVF56Ez9w8SUxsYA7RlBEUz88ceRqTHL1nrHhUOQ6a+Nz64r9Z58ncAEALFIjXo1Om5qCZumqzQmouPQG/8n3/UIARztW4GpMcKXpLgAAnteqeHXXeZvj8uGhgIqqCVjwrGf+/D/G3ht+N4DFSYGr/+xnVxJfel70n3Oe6S0AoJJaOXklYFFxAhbMN/a122LP7/1mAM0hbgEAVZGeEnjx9x5q2dqggEXFCVhwJBEL2qMRt9IaorVEAKDIUrxKk1c7JqaiVQQsKk7AgmMRsaCzUsRKN7caU1s9Z24QtgCALLUjXiUCFhUnYMHxiFiQH2ELAMhJu+JVImBRcQIWnIiIBcXQCFv9r7i0voroxhYA0GrtjFfJ9otfGpsH+gIqSsCCk5n64QOx+wPvidoz+wIojvk3tgZefqlpLQCgadodrxIBi4oTsGAhRCwoD9NaAMBydCJeJQIWFSdgwUKJWFBeohYAsBCdileJgEXFCViwGCIWVMeRUWvg4ksDAKiuTsarRMCi4gQsWCwRC6qrfk/r4kui76Xn1aOWm1oAUA2djleJgEXFCViwFDOP7ZyLWO+Omcd3BVBdjUPx/S+/NAZefonVQwAooRziVSJgUXECFiyViAUcS5rKqq8cpqh18SXRc+bGAACKaXR6ph6v7hsbj06rXfpTARUmYMFyiFjAyaSAVZ/SesWhoGXtEACKIad4lQhYVJyABcslYgGL0Vg7HLzsCsfhASBTucWrRMCi4gQsaAYRC1gqQQsA8pJjvEoELCpOwIJmEbGAZkhBa/CiS6wcAkCHXPzdh7KLV4mARcUJWNBMIhbQbOmGVgpZjsIDQOtd+dCuuGX3aORIwKLiBCxoNhELaKU0kZVC1uBlr7NuCABNlHO8GunpiT0//bKAChOwoBVELKBdDsWsK6wbAsAy5Byvks0DfbH94pcGVJiABa0iYgHt1lg3XPnGt5vOAoAFyj1eJQIWCFjQUrPP7IufzEWsqR9+PwDaqXEMvjGd5XYWABytCPEqEbBAwIKWE7GAHFg1BIDDXbvzybhm5+4oAgELBCxoCxELyIlVQwCqrkjxKhGwQMCCthGxgByJWQBUTdHiVXL58FDcdd7mgAoTsKCdRCwgZ2IWAGVXxHiVCFggYEFH7Pnd34ixO74cALkSswAom6LGq0TAAgELOkbEAopCzAKg6IocrxIBCwQs6CgRCyiaFLNW/MzrYtW7rqx/GwByV/R4lQhYIGBBx4lYQFH1nXNePWSl6SwxC4AclSFeJQIWCFiQBRELKLpDK4bviJVveHsAQA7KEq+S968biS+8ZENAhQlYkIt9n78h9s+9AIqscS8rTWalCS0A6IQyxatEwAIBC7IiYgFlYsUQgE7Ytns03v/QrigTAQsELMiOiAWUUVot9BRDAFqtjPEqEbBAwIIsiVhAWaVJrOFfvNpUFgBNV9Z4lfzaGafGH24+I6DCar0BZCe9uUtELKBsZh7bWX9wRZKmstLXOyELgOUqc7xKRnq7A6rOZwFkKr2pW/1syAIoo/T01cffvjV+8oF3exIrAEtW9ngFHGKFEDJnnRCoijSJtfqdV8bg1teZygJgQe4bOxgXf/dHUXbXbFwXv7Px9IAKq5nAgsyZxAKqIq0Xjt7w8fpUVlozTN8HgONJ8epnH9gRQDUIWFAAIhZQNfPXCyfu/UYAwHyNeDU6PRtVMNLTE1B1AhYUhIgFVNHEvd+ci1jvqccsd7IASKoWr5KRXgELBCwokBSx1v727wdA1TSeXihkAVRbFeMVcIiABQWz8o3vELGAyjoyZLmTBVAdOyYmxSuoME8hhIIa+9ptsef3fjMAqiw9rXDoDW+PlXMvTy4EKK9GvNoxMRVVdPu5L4y3rF0dUGE1AQsKTMQCOETIAiivqser5K7zNsflw0MBFSZgQdGJWADPE7IAykW8OkTAAgELSmHqhw/E7g+8J2rP7AsAng9Znt4KUFzi1fMELIiaI+5QAn3nnBfrbvpidK0aDgAOHXvf9/kbPLUQoKDEK+BIJrCgRExiARxbmsga/sWr66uFAORNvDra9otfGpsH+gIqzAQWlIlJLIBjSxNZe373N+oTWRP3fiMAyJN4BRyPgAUl04hYPWdsCAAOl0LWTz7wnnrMSt8GIB/iFXAiVgihpNIbs90feHfMPL4rADi2tFKYVgs9sRCgs8SrE9vzypfFSG9PQIV5CiGUmYgFcHLuYwF01uj0TFz8vYfEqxOoXfpTARUnYEHZiVgAC5NC1sivfSwGf+Z1AUB7pHiVJq/uGxsPjk/AAgELKkHEAlg4a4UA7SFeLZyABQIWVIaIBbBw3auGY9W7rozVcyELgOYTrxZupKcn9vz0ywIqruYphFARaZJg3U1f8nRCgAWYfWZf7Pv8DfH427d6WiFAk4lXizPS6207JD4ToEJELIDFSfEqRay9N3w8avv3BQDLJ14BSyFgQcWIWACL98yffyGeeP8vxNgdXw4Alu7Kh3aJV8CSCFhQQSIWwOKlaaw9v/sb9Ze1QoDFS/Hqlt2jweJsHugPQMCCyhKxAJYmTWHt/uB7TGMBLIJ4BSyXgAUVliLW6bd+LfrO2RIALJxpLICFE6+AZhCwoOLSo+JPu+lLIhbAEjSmsSbu/UYAcLQP7XhcvFqmkZ6eAAQsIEQsgOVIE1g/+cB7Yv/nbwgAnnftzifj+sefCpZnpNfbdkh8JgB1IhbA8uybC1iPv32rlUKAOBSvrtm5OwCaRcACniNiASxPilcpYh348y8EQFWJV81lhRAOEbCAw6SIdfq2r8XKN7w9AFia0Rs+7sA7UEniVfNZIYRDfCYAx7T2o58WsQCWoXHgXcQCqkK8AlpJwAKOS8QCWB4rhUBViFdAqwlYwAmJWADLl1YK9869avv3BUDZiFettXmgPwABC1iAFLGG3nVlALB0z/z5F+KJ9/+ClUKgVMQroF0ELGBBRq7+WKz+xasDgKVL8SrdxZq49xsBUHTiVXus6fUUQkgELGDBhucClogFsDwpYv3kA++J/Z+/IQCKSrxqn5Eeb9sh8ZkALIqIBdAc++YClogFFNG23aPiFdB2AhawaCIWQHOkiPWTD7zbcXegMFK8ev9DuwKg3QQsYElELIDmmLj3m467A4UgXnWGpxDCIQIWsGQiFkBzNI67i1hArsQroNMELGBZRCyA5kjx6sn3/YInFALZEa86yxF3OMRnArBsIhZAc8w+s6/+hMKxr90WADm4b+ygeNVhI709AQhYQJOIWADNs+f3ftMTCoGOS/HqZx/YEQA5ELCAphGxAJonPaFQxAI6pRGvRqdng84Z6TF9BQ0CFtBUKWKt/e3fDwCWT8QCOkG8ysdIr7fs0OCzAWi6lW98h4gF0CQiFtBO4lVe3L+C5wlYQEuIWADNI2IB7bBjYjLe+oNHxKuMWCGE5wlYQMuIWADNU49YN34iAFohxas0ebVjYioAciRgAS3ViFhdq4YDgOXZ98X/PfZ/+qMB0EziVb5MYMHzBCyg5VLEWnfTF0UsgCbYd/sXRSygacSrvDniDs/z2QC0Rd8554lYAE0iYgHNIF4BRSJgAW0jYgE0T4pYY398XQAshXhVDJsH+gI4RMAC2krEAmievf/Hn8bUTXMR6+CBAFgo8QooIgELaLtGxOo5Y0MAsHSz0zPxkz//05i54aMiFrAg4lWxOOIOzxOwgI44FLG+JGIBLFOKWLv/y/8ZtZt+R8QCTki8Kp6RXgELGgQsoGN6ztwoYgE0wczERDz19b+J+Jx1QuDYtotXhbRGwILnCFhAR4lYAM0xsXdf7P27/yZiAUfZMz0TrxGvCmmkx1t2aPDZAHSciAXQHM88+ngc+M43D0WsPbsDQLwCykLAArIgYgE0x74f74qpHz4Q8VkRC6quEa/uGxsPiskRd3iegAVkQ8QCWL501P2pBx6M2u7HRCyoMPGqHBxxh+cJWEBWRCyA5UtH3Ud/9OND8UrEgsoRr8rDDSx4ns8GIDsiFsDyjT35kzjw6OMiFlRMbe4lXpWHCSx4noAFZEnEAli+dA9rZnxCxIKKSPHqqod2iVcl4f4VHE7AArIlYgEsT7qHteeH2w99R8SCUmvEq1t2jwblMNLr7TrM5zMCyFqKWKff+rXoO2dLALB4E3v3HVolTEQsKCXxqpysD8LhBCwge92rhuO0m74kYgEs0XOrhImIBaUiXpWXFUI4nIAFFIKIBbB0h60SJiIWlEKKV7++43HxCqgEAQsoDBELYOkOWyVMGhHr0R0BFNN1O5+M6x9/KiinzQN9ATxPwAIKpRGxBi6+JABYnMNWCZMUsT73cRELCujauXh1zU5TlEB1CFhA4TQi1so3vD0AWLi0Srh3+48P/8GDB0QsKBjxqhpMYMHhBCygsNZ+9NMiFsAiHXxqT0zs3X/ED4pYUBTiFVBVAhZQaCIWwOLt+dcfHf2DIhZkT7yqls0D/QE8T8ACCk/EAlicmYmJww+6NzQi1j9/O4C8iFdA1QlYQCmkiDX0risDgIVJB91r09NH/0SKWNs+E/GdewLIg3hVTZvcwILDCFhAaYxc/bFY/YtXBwAnlw6673/0ieP/gv98s4gFGRCvAA4RsIBSGZ4LWCIWwMKkNcKZ8Ynj/wIRCzpKvKo2N7DgcAIWUDoiFsDCpCmsfY/sOvEvErGgI8QrgMMJWEApiVgACzP2xE9OPIWVpIj1d3cE0B637B4Vr4jNbmDBYQQsoLRELICFOekUVvKXt0b89W0BtFaKV1c+tIDPSYCKEbCAUhOxAE5uQVNYSQpYIha0jHhFg+krOJqABZSeiAVwcguawkpELGgJ8Yr5Rnp7AjicgAVUgogFcGLjT+2J2vT0wn6xiAVNJV5xpJEeAQuOJGABlSFiARxfeiLh/kefWPhfIGJBU9w7djA+9PBjAfMJWHA0AQuoFBEL4PgOPPr4wqewEhELliXFq9c8sCNGp2cD5hvp9VYdjuSzAqicFLHW/vbvBwCHW/QUViJiwZKIV5yII+5wNAELqKSVb3yHiAVwDOmJhIsmYsGiiFcAiydgAZUlYgEcbWZiIib27o9FE7FgQcQrFmLzQH8AhxOwgEoTsQCOtv/HS3waWgpYf7ktgGPbPjEZb/vBI+IVJ7Wm1xF3OJKABVReilinfOqz0bVqOACImNi7b3HH3Of7uzsj/vzmAA6X4lWavNoxMRVwMiM93qrDkXxWAMxZsfWKWHfTF0UsgGct+pj7fP94j4gF84hXLNZIjwksOJKABfCsvnPOE7EAnnXg0cdjWUQsqBOvWIoRK4RwFAELYB4RC+CQ2emZpR1zn0/EouLEK5Zq80BfAIcTsACOIGIBHDL+1NOxbClibfuDiIMHAqpEvAJoLgEL4BgaEavnjA0BUFVjT/5k6cfc5/vn70R87joRi8oQr1gO01dwbAIWwHEcilhfErGAykprhJMHDkZTPPqwiEUliFcs1+aB/gCOJmABnEDPmRtFLKDSxp7cHU0jYlFy4hVA6whYACchYgFVNv7UnuasETaIWJSUeEWzWCGEYxOwABZAxAKqqqlrhA0pYl3/WxF7mjjdBR20Z+7zRLyiWUZ6egI4moAFsEAiFlBVTV0jbEjx6rPXiVgUnnhFs430epsOx+IzA2ARRCygitIaYUuIWBRcI17dNzYe0CyOuMOxCVgAiyRiAVWT1ggn9u6PlhCxKCjxilZZ02uFEI5FwAJYAhELqJqJvfuiZUQsCka8opVGerxNh2PxmQGwRCIWUCWTrZrAahCxKIja3OuqH+0Sr2gZR9zh2AQsgGUQsYCqSBNYtenpaCkRi8zV49VDu+IrT7c46FJpmwf6AjiagAWwTClinX7r16LvnC0BUGZjT41Gy4lYZKoRr27Z3YbPAyptxA0sOCYBC6AJulcNx2k3fUnEAkpt+sCBaAsRi8yIV7SL6Ss4PgELoElELKDsDj7VxjfvIhaZEK9oJ9NXcHwCFkATiVhAmc1MTLT+DtZ8jYj16I6ATkjx6td3PC5e0TYOuMPxCVgATdaIWINbXxcAZTP2VJvfyKeI9bmPi1h0xHU7n4zrH38qoF2sEMLxCVgALZAi1qmf+lysfMPbA6BM2nYHa76DB0Qs2u7auXh1zU4rrLSXCSw4PgELoIXWfvTTIhZQKhN7n4mOELFoI/GKThnp9RYdjsdnB0CLiVhAmUwdONDeO1jziVi0gXhFJ20e6A/g2AQsgDYQsYAymTxwMDqmEbH++dsBzSZe0Wmb3MCC4xKwANokRayhd10ZAEU31Yk7WPOliLXtMxHfuSegWcQrcuAGFhyfgAXQRiNXfyxW/+LVAVBkUwfGIgv/+WYRi6YQr8jFSK+ABccjYAG02fBcwBKxgCKbeqaDK4RHErFYJvGKnGy2QgjHJWABdICIBRRZx1cIjyRisUTiFTmxPggnJmABdIiIBRRZlhHrr28LWCjxitxsHjR9BSciYAF0kIgFFNVkTmuEDSlgiVgswC27R8UrsmMCC05MwALoMBELKKLp3CawGkQsTiLFqysf2hWQG/ev4MQELIAMiFhA0czOzES2RCyOQ7wiZwIWnJiABZAJEQsokonR/ZE1EYsjiFfkzgohnJiABZAREQsoitrMdGRPxOJZtz+9X7wie5sG+wM4PgELIDMiFlAEs9MzMT0+EdkTsSrv3rGDcdWPdgbkbqTH23M4EZ8hABlKEWvtb/9+AORs+sBYFIKIVVkpXr3mgR0xOj0bkLvNAyaw4EQELIBMrXzjO0QsIGsz0xkfcj+SiFU54hVF44g7nJiABZAxEQvI2cxEAVYI5xOxKkO8omgccIeTE7AAMidiAbkqXMBKUsD6y21BeYlXFNHmQdNXcDICFkABpIh1yqc+G12rhgMgF9Pjk1FIf3dnxJ/fHJTP9onJeNsPHhGvKBwTWHByAhZAQazYekWsu+mLIhaQjZkiPIXweP7xHhGrZFK8SpNXOyamAorG/Ss4OQELoED6zjlPxAKyUZuZjkITsUpDvKLoBCw4OQELoGBELCAXs9MzUZsWsegs8Yoy2DzQH8CJCVgABSRiAbmYmYtYhZci1mevizh4ICgW8Yqy2GQCC05KwAIoqEbE6jljQwB0ysxEQQ+5H+lHD0R8TsQqEvGKMnHEHU5OwAIosEMR60siFtAxhV8hnO/Rh0WsghCvKBs3sODkBCyAgus5c6OIBXRMKVYI5xOxsideUUYjvSaw4GQELIASELGATin8kwiPRcTKlnhFGV00NBjAyQlYACUhYgGdMFu2CayGFLGu/62IPbuDPIhXlJX7V7AwAhZAiYhYQLvNTExEaaV4lZ5OKGJ13J65UCpeUVbuX8HCCFgAJSNiATSRiNVx4hVlJ2DBwghYACUkYgHtUivrCuF8IlbHNOLVfWPjAWW1eaA/gJMTsABKSsQC2qF0TyE8HhGr7cQrqmKTCSxYEAELoMRELIAmErHaRryiShxxh4URsABKrhGx+s7ZEgDNVokVwvlErJarzb2u+tEu8YrKcAMLFkbAAqiAFLFOE7GAFpidno7KEbFaph6vHtoVX3l6f0AVpOmrkV4TWLAQAhZARXSvGhaxAJpFxGq6Rry6ZfdoQFVsHjR9BQslYAFUiIgF0EQiVtOIV1TV5n5PIISFErAAKkbEAmiiRsR6dEewNOIVVeb+FSycgAVQQY2INbj1dQHAMqWI9bmPi1hLkOLVr+94XLyisgQsWDgBC6CiUsQ69VOfi5VveHsAsEwHD4hYS3Ddzifj+sefCqiqTYNWCGGhBCyAilv70U+LWADNIGItyrVz8eqane6HUW0jPd6Sw0L5bAFAxAJoFhFrQcQrOOSilYMBLIyABUCdiAXQJI2I9Z17gqOJV3DISE9PjPT2BLAwAhYAz0kRa+hdVwYAy5Qi1n++WcQ6gngFz9s86IA7LIaABcBhRq7+WKz+xasDgCYQsZ4jXsHhNvc74A6LIWABcJThuYAlYgE0iYglXsExbB4wgQWLIWABcEwiFkATVThiiVdwbAIWLI6ABcBxiVgATZQi1l/fFlUiXsHxXTjkCYSwGAIWACckYgEn0jM4ECxCClgViVjiFZxYegohsHACFgAnJWIBNFEFItYtu0fFKziJi0xgwaIIWAAsiIgF0EQljlgpXl350K4Ajs/0FSyegAXAgolYAE1UwoglXsHCmL6CxROwAFgUEQuYr3ewP1iGEkUs8QoWzhMIYfEELAAWLUWsNVd/NABoghJErNuf3i9ewSIIWLB4AhYAS7LqXVfF2t/+/QCqrWfAUwibosAR696xg3HVj3YGsHAXDq0IYHEELACWbOUb3yFiATRLASNWileveWBHjE7PBrBwIz3eisNi+awBYFlELKi27l5P0mqqAkUs8QqW7qKVjrjDYglYACybiAXV1dXTGzRZClh/uS1yJl7B0o309MSI+A+LJmAB0BQpYp3yqc9G16rhAKqjd9ANrJb4uzsj/vzmyJF4Bctz0ZDpK1gKAQuAplmx9YpYd9MXRSyAZvjHe7KLWNsnJuNtP3hEvIJlSBNYwOIJWAA0Vd8554lYUCE9A/1BC2UUsVK8SpNXOyamAli6i4ZMrsJSCFgANJ2IBdXR445L62UQscQraJ4Lh1YEsHgCFgAtIWJBNXT1OuLeFiliffa6iIMHot3EK2iukR5vw2EpfOYA0DIpYq3f9lfRc8aGAMqnZ8AaTFv96IGIz7U3YolX0HwXrXTEHZZCwAKgpXrO3BjrbvqSiAUl1OMJhO336MNti1jiFTRfOuA+YvUalkTAAqDlRCwoJ/evOqQNEUu8gta4aMj0FSyVgAVAW4hYUD6eQNhBLYxY4hW0jvVBWDoBC4C2EbGgXBxw77AUsa7/rYg9u6NZxCtorc0DfQEsjYAFQFuJWFAejrhnIMWr9HTCJkQs8Qpa70IrhLBkAhYAbSdiQTn0OuKehyZErD3TM/G2HzwiXkGLpSPuwNIIWAB0hIgFxdfd6z8ls7GMiJXiVZq8um9sPIDWcsQdls5/dQDQMSIWFFuvFcK8LCFiiVfQPuIVLI+ABUBHiVhQTN29PY6452gREUu8gvba3O/JrbAcAhYAHdeIWH3nbAmgGHqHhoJMLSBiiVfQfhcNmVqF5RCwAMhCiliniVhQGD29DhFn7QQRqzb3uupHu8QraLMLh1YEsHRdtTkBAJmYfWZf/OQD746pH34/lmPfwHDsGtkQ/7L+vNi/Yrj+/fmGJ/bFWaM7Y3h8X7zs8e/Xvw8s3Kqz1seaF28KMrd2XcQv//tDH5915UO74pbdowG0173nv8QdLFi6moAFQHaWGrG+temS+JtzXxdfP/eKuXi1cVF/7eq5kLXliQfmYtYD8aqHvxmv2vFNUQtOYM2LXzgXsc4ICuDZiFWb+3iVeAUdU7v0pwJYMgELgDwtNGKlyapbL70ytr3qytg/OBzN9KqHvxE/94O/jp/e8Y25uLW8iTAom9PO3xIDa1YHBTEXr6597XvjmtmVAbRfmrxKE1jAkglYAOQrRaw9v/sbMf5f//qYP3/rJVfGH2+9uunh6lg2jO6M1/7g/4r3ffMLsWHvroCqO/3in4o+h9wLZU/fYLzmZ94b942sD6C93rJ2OG4/9wUBLJmABUD+UsQau+PLz31/15oN8ZE3fzq+tenS6IQ0mfXW+79cf0FVbfh/vioonh0rR+Jnt/7b+kegfa7ZuC5+Z+PpASyZgAVAMTQi1vfXb4kPvvNzi75x1QppKivFrA/ec4OpLColTV6lCSyK6a7TNsVrtr43gPa5/dwXxlvWWruGZRCwACiO//6HN8T/vPnKtqwMLtZb779NyKIyVpy6Nk7Zck5QTOk//n/9givi+rMvCaA9PIEQlk3AAqAYHj4Y8YZvRvz4YGRNyKIKVp21Pta8eFNQXOke1ov/za/GaJ831NAOnkAIy1brDgDIXFHiVXL7he+I1/67/xYfedPv1291QRn1DA4ExbZ2ajx+7cFvBtB6Jq+gOQQsALJWpHg1n5BFmXn6YDn8uwe/FUDrbe7vD2D5BCwAslXUeDVfCllv+aWvxY2XXR1QFv1DK4LiG5kaj8t37wigtS4fXhnA8glYAGSpDPGqIR2dv3Hr1fHaX/2vc0Hr7QFF1t3bE129vUHxdc293vzYvwbQWhdaIYSmELAAyE6Z4tV8u0Y2xkfe9GlrhRRar/XBUnnzoz8IoLUuWilgQTMIWABkpazxaj5rhRSZ9cFy2Tw2Wl8lBFpjpKcnRnp7Alg+AQuAbFQhXjXMXys0jUWReAJh+aSIBbSGJxBC8whYAGShSvFqvrRWmJ5WaBqLovAEwvK5aPSJAFrD+iA0j4AFQMdVNV7NZxqLorBCWD5WCKF1Llsj+kOzCFgAdNTotHjVkKax0m2sbZdcGZCjNH3lCYTlkp5EKGBB62zu7wugOQQsADpGvDpauo31ySs+5kmFZKl3sD8AWDg3sKB5BCwAOqIRr763LziG9KTC9773S/H99VsCctE7tDIAWBjxCppLwAKg7cSrhUkrhW/9pa858E42BtYMBwAL44A7NJeABUBbiVeLlw68f+Cdn7VSSMc54F4+tbnXaJ832dAKAhY0l4AFQFu9/p5Z8WoJvn7uFfWVQhGLTukZGHDAvaS2rxwJoPkutEIITSVgAdA2v/LdiP8x6beepfKUQjqpf5X7V2W1t28ggOYzgQXN5V0EAG2R4tWf7QqWqfGUQnexaDcH3MvrvpEzAmiudMB9pLcngOYRsABoOfGq+Rp3sfYNOKpNezjgXk7p/pUbWNB8m/v7A2guAQuAlhKvWifdxXrrL/2Vu1i0hQPu5XTfmvUBNN/lw6ZWodkELABa5re+L161WrqLlY67f3/9loBWccC9vO63Pggt4YA7NJ+ABUBLfPKHETftCNogRay3Ou5OCzngXk61uddXz3xpAM3ngDs0n4AFQNOlePWJB4M2c9ydVulfszooJwfcofkccIfWELAAaCrxqrPScXcRi2brGxoKyufu0zY54A4t4IA7tIaABUDTiFd5SBHrI2/6/YBmGTCBVTppffAvzzo3gOZzwB1aQ8ACoCnEq7zcfuE74i3/77+KfQPDAcvRv8a/Q2V197pNATSfA+7QGgIWAMsmXuXpX844L976S38Vu9ZsCFiq/qEVQfnsWLkm7lvj/hW0wuXD1q6hFQQsAJZFvMpbekLhe9/7JRGLJRswgVVKXz3rZQE030Wmr6BlBCwAlky8KgYRi+XoG3LLpWzS/asbzn5VAM13+WrTV9AqAhYASyJeFYuIxVKkpw/2DA4E5ZKePrhj5UgAzWcCC1pHwAJg0cSrYhKxWKy+Ve5fldG2TRcG0BoXrhSwoFUELAAW5T/tFK+KrBGxvr9+S8DJDKxZHZRLOt4uYEFrjPT0mMCCFhKwAFiwFK9++XtBwYlYLNTAsAPuZXP3aZsDaA3xClpLwAJgQcSrctk/OCxicUI9AwPuX5VMOt5+7XlbA2iNy4c99AJaScAC4KTEq3ISsTiR/lXeiJXNLS+80PF2aKHLhj2BEFpJwALghP7s4Zp4VWIpYn3wnZ9z2J2jDJ4qdJRJmr66zvQVtNRFDrhDSwlYABzXd/dF/PJ3g5LzdEKOpW/IBFaZmL6C1kr3r0Z6ewJoHQELgGNK8eoN34zo6u0Kyk/EYr50/6pvyCpMWZi+gtYzfQWtJ2ABcJRGvNo7HVSIiEXDwMjqoDxMX0HrvfkUT22FVhOwADiMeFVtIhbJwBoBqyxMX0F7mMCC1hOwAHiOeEWSItYH3vm52DfgT5OramDY//ZlYfoKWm/zQF/9BbSWgAVA3cMHI979T+IVh/zLGefFe9/7RRGrgtLtq57BgaD49vQNmL6CNrho5YoAWk/AAqAer9Lk1Y8PBjwnRaxP/vxHg2rpW+WNWFn80dmXmL6CNrh82FNboR0ELICKE684kdsvfEd84goRq0pWnLI2KL7tK9fENVsuC6D1Lhv21FZoBwELoMLEKxbi1kuuihsvuzqoBgfciy8dbr9WvIK2GOnpiYuGHHCHdhCwACpKvGIxbtx6dWy75Mqg3PrXDEdXb29QbOlw+7ZNFwbQeuIVtI+ABVBB4hVL8ckrPhZ/c+7rgvIyfVV8DrdDe71lra+b0C4CFkDFiFcsx0fe9On4/votQTkNrPHUyaJzuB3a60ITWNA2AhZAhYhXLNf+weH44Ds/F7vWbAjKpWdgwARWwTncDu2V7l9d7oA7tI2ABVAR4hXNsmtkY7z3vV+KfQOmdcqkf5XHwBdZOtz+mq3vDaB93L+C9hKwACpAvKLZUsT64Ls+G5TH4KnWzorsui1brQ5Cm7l/Be0lYAGU3Oh0xOv/e028oum+tenS+MQVHw3KYWDYRF1RWR2EznD/CtpLwAIosRSv0uTVI1NdAa1w6yVXxbZLrgyKrX/NcPQMDgTFk546aHUQ2s/9K2g/AQugpBrx6nv7Alrqk1d8LL616ZKguBxvL6Z09+q6LZdbHYQOEK+g/QQsgBISr2i3D3gyYaGtcP+qkG554YVx/dmvCqD9Lh/24AtoNwELoGTEKzph/+CwJxMWVM/AQPQNmSQomnT36rrztgbQGZeZwIK2E7AASubd36yJV3SEJxMW08CI9cGiSauDb7v0nVYHoUM2D/TFRQ64Q9sJWAAl8ivfjfi7fQ620znpyYQ3XnZ1UBwrTlkbFMt1W7bGfSNnBNAZ7l9BZwhYACWR4tWf7QrouBu3Xh23X/j2oBgccC+W2888N67ZclkAnSNgQWcIWAAlIF6Rm09c8TFH3Qtgxalro6u3NyiGdPfq1y+8IoDOcv8KOkPAAig48YocOepeDIOePlgYe/oG4jVb3+vuFXRYun2VbmAB7SdgARTYb31fvCJf6aj7R978+0G+BoYFxiJIR9uv23K5eAUZuHy16SvoFAELoKA++cOIm3YEZO3r517hqHum+tcMR8/gQJC/dLT9+rNfFUDnvfkUdwOhUwQsgAJK8eoTDwYUQjrq/q1NlwR5WWF9sBAcbYe8OOAOnSNgARSMeEURfeRNn3bUPTMrTlkb5C0dbb/qlW8KIA/iFXSWgAVQIOIVRXXoHtangzz0DQ1ZH8xcilfpaPto32AAeXjLWuuD0EkCFkBBiFcU3bc2XRqfuOKjQecNrFkV5CsdbX/bpe90tB0y8+ZTPPgCOknAAigA8YqyuPWSq9zDysDK9acFeUrx6qpXvCnuGzkjgHxsHuirv4DOEbAAMideUTYfeOfn3MPqoJ6BgfoKIXlKTxy8ZdOFAeTF/SvoPAELIGPiFWW0f3DYPawO8vTBfF07F688cRDy9L51vnZCpwlYAJkSrygz97A6Z/DUU4L8pKkr8QryNNLTYwILMiBgAWToE9+viVeUnntY7ZfWBwfWeIpWbu5dsz6ufMWbAsiTeAV5ELAAMvOfdkZ8ckdXQBV85E2fjn0DnurULgMj4lVutq9cE6/Z+t4A8vWWU3zthBwIWAAZSfHql78XUBm7RjbGB9/12aA9Vp6+LshHI16N9g0GkK/LTGBBFgQsgEyIV1RVuoe17ZIrg9ayPpiXRrzasdJhaMhZWh/cPNAXQOcJWAAZEK+ouhu3Xh271mwIWsf6YD7EKyiOt6z1tRNyIWABdNifPVwTr6i8/YPD8YF3fs49rBZaddb6oPPEKygW64OQDwELoIO+uy/it/7VwXZI/uWM8+LGy/5d0HxpfbBvyJuwThOvoFjS6uBFQ27UQS4ELIAOSfHqDd+M2DsdwLNuveSq+NamS4LmWnGqYNJpe/oGxCsomLesNRUMORGwADpAvILj+8ibPm2VsMlWrj8t6Jx6vPoZ8QqK5s2nuH8FORGwANpMvIIT2zWy0SphE1kf7KxGvLpv5IwAiiOtD17u/hVkRcACaCPxChYmrRL+zbmvC5Zv1QbH2zsl3bx6+Wt/SbyCAhKvID8CFkCbPHww4t3/JF7BQlklbI4Vp6wN2s/Bdii2963zuQu5EbAA2iDFqzR59eODASzQ/sHh+OC7PhssXf+a4egZHAjaS7yCYrM+CHkSsABaTLyCpfvWpktj2yVXBksztP7UoL3EKyg+8QryJGABtJB4Bct349arY9eaDcHiDQxbwWwn8QrKwfog5EnAAmgR8QqaI60SfuTNnw4Wx/pge927Zr14BSVgfRDyJWABtIB4Bc1llXDxrA+2j3gF5SFeQb4ELIAmE6+gNawSLlx3b0+sPH1d0Hq3bLowXv7aX4rRvsEAis/6IORLwAJoIvEKWscq4cINnro2aL3rz74krnzFmwIoB+uDkDcBC6BJxCtovbRK+Dfnvi44MdNXrXftlq3xoQuuCKA8xCvIm4AF0ATiFbTPR9706dg34Ol6x9MzMBADa1YHrVGbe33ogp+Pa7ZcFkC5WB+EvAlYAMs0Oh3x+v9eE6+gTdIq4Y2X/bvg2Fac6g1Yq+zpG4jX/Mx74/qzXxVAuVgfhPwJWADLkOJVmrx6ZKorgPa59ZKr4lubLgmOtuqsM4Lm275yTT1e3b1uUwDl85a1JnshdwIWwBI14tX39gXQAVYJj9a/Zjh6BgeC5qrHq63vjftGxEEoq6vPPDWAvAlYAEsgXkHn7RrZaJXwCEPrvQFrttvPPDde/tpfih0rrWZCWV00NFhfIQTyJmABLJJ4BfmwSni4gWETac10/dmXxNte/c4Y7RsMoLx+7QzxH4pAwAJYpF/5rngFObnxsquDiJXrT7M+2CSNJw1+6IIrAii/yxxvh0IQsAAWIcWrv3oigIx8a9Olse2SK6PqVp6+Llg+TxqEaknH260PQjEIWAALlOLVn+0KIEM3br06dq3ZEFXVMzAQA2tWB8uTjrWne1eeNAjV8ZZTfO2EohCwABZAvIK87R8cjk/8/MeiqtL6IMvjWDtUT5q8et86n/NQFAIWwEmIV1AMXz/3isoedB86XcBajmu3bHWsHSrocrevoFAELIAT+PD3auIVFMhH3vTp2DdQrSfx9a8Zdrx9idK9qytf8aa4ZstlAVTP1Z4+CIUiYAEcxyd/GPEfdnYFUBy7RjbGrZdW66D70HpvwJaice/qlk0XBlA9Fw0N1l9AcQhYAMeQ4tUnHgyggLa96srKHHRPx9s9fXDx3LsCfs30FRSOgAVwBPEKii0ddP/Imz8dVTAw4ulZi1Gbe33ogp937wqIy9y/gsLpDQCeU/R4VZuuHXpNzM59nI2Ymfv2zLM/Nj576Bc9+/3nfv1MLZaiq6crunqfX7HsGjj0ZyJdg89+nPu5+q8Z6Hnu5+s/1mstk9b71qZL6wfdX/XwN6PMhl9QjUmzZkgrg1e94s1x97pNAVTb+9eN1J9ACBRLV21OAFCIeDU7F6FmD0zXI9RsilRz30+xKn17fpjKXYpZ3Y3glcLW4KHvp9jV1RvPfhS6WJ4Nozvj9j/5hRie2BdllI63rzv/ZcHJ3XXaprjqlW+yMgjU3XXeZk8ghOKpmcACiPziVYpUswdmYmbuFXNxqv6xQIHqZFJ0m5mYPeGvqU9r9c+FrTTRNXDoY/fK3nrg6h7y2xcn1zjo/sF7bogycrx9Ya4/+5L40AVXBECSJq/EKygmE1hA5XUyXqUgVY9VYzMx+8xMPVqlb3Ny3SsPTWl1DfU8F7e6h0xucbjV4/viK3/yxtiwd1eUSTrefsZPe3reiezpG4i3XfouK4PAYW55yYZ43zrTmFBANQELqLR2x6sUrGaenqxPVM3unRarWiAFrHrcErZ41mt/8H/FTf/5l6NMVq4/Ldae8+Lg2KwMAsez/eKXun8FxWSFEKiudsSr+cFq5ump+uocrVX///m+6Yj0midFrRS0UtjqGe4TtSrk6+deUbqD7o63H9+1W7bGNVsuC4AjOd4OxWYCC6ik/7Aj4sPfj5aY2TsVs3PxZGbv9KGQQrYa01rda3pFrZJ71cPfiFtvfU+UgePtx+Ypg8DJmL6CQjOBBVTPf9rZ3HjVuGM1/eRkzOyZKs2h9SpoTGul11SM138sPRWxZ+hQ1Errhz1r/FZZBt/adGlsu+TKeN83vxBF53j70W4/89z6yuBo32AAHEs63C5eQbGZwAIqJcWrX/5eLJtoVS09w73Prh721p+AWH8yIoWTDrp//Y+2xvDEvigqx9sPlw61X7fl8rj+7FcFwIk43g6FZwILqI5mxKu0Hjj99FTM7J4UrSqkcVNr+rGJ+vfra4cpaK05dCA+RS3yt39wOG699Mr44D03RFENjKwODrl3zfp426vf6VA7cFJp8kq8guLzX9xAJSwnXqVQNf3YeEzNxQvRiiQ9PTK9pudCZtJYO+w5pU/Qyty2V10Zb73vttiwd1cUkePth1x/9iXxoQuuCICFuPqM0wIoPiuEQOn91RMR7/6nWLQ0bTX1yLhD7CxaPWgNH7qf1Z2Ow1s5zEpRD7o73u5QO7A0jrdDKVghBMrtu/sifvm7C//1z01bPTkZtYnZgKVI/+6k6azGhNZzK4en9M1FrT5POuywdND9W5sumQtZ34wiqfrx9jR1de2WrQ61A4vy/nUj4hWUhAksoLRSvHrD3PvTvQsYoLImSDvVj8Gv6Z372Ocphx1StCmsKh9vT4fa09TVV846NwAWy/QVlIYJLKCcFhqv0qTM5CMHY+ZpTxKkfdJaanpNxXh9Gqu+bpjuZ1k3bJs0hXX7hW+Pt97/5SiC1RvWRxXdfua5cdUr32TqCliSt6wdFq+gRExgAaWzkHjVCFfTT04G5CStG/ac2mc6qw02jO6M2//kF2J4Yl/k7oxXXhg9gwNRFWnq6rotl8f1Z78qAJbqrvM2x+XDQwGUggksoFzu31OLN36n67jxSrgid40nHNansxrH4N3OaoldIxvj1kuvjA/ec0PkbOX60yoVr+46bVN96mrHSo+8B5YuTV6JV1AuJrCA0nj44KHJqx8fPPrn3LiiDFLM6j2936phE60e3xdf/6OtWU9hnXb+lhhYszrKztQV0Ey3vGRDvG+dEA4lYgILKIcTxavpuWiVpq6EK4qucTsrqU9mpVXDtf1i1jLsHxzOegorHW+vQrxy6wpopjR9JV5B+ZjAAgrvePFqZu9UTDw4Vl8bhDKrrxqe0hd9aTpryJ9NLVaawvrKn7wxNuzdFblZ+9IXxcrT10VZecIg0Aqmr6CUagIWUGjHilf1O1fbx2L66amAqmnczeo9fcAR+EV46/23xSf/8jcjJ2n66oyfvjDK6vqzL4lrt2w1dQU0VZq+2n7xSwMoHSuEQHEdK15ZF6TqUsCd3j1Zf4lZC3f7he+Yi1hfjlc9/M3IxcBIOVcHt69cU5+6unvdpgBotms2nh5AOTmaARTSkfEqvWkf/x/7Y2L7mHgFz2rErPF/3h9j/7g3Jn54IGaO94hO4sbLro6cDL9gQ5RNmrp6+Wt/SbwCWiJNX13myYNQWv44FiicI+OVqSs4uaMms9zMOsq3Nl0697okiymsletPi57BgSiLu07bFL9+wRVx38gZAdAq71u3th6xgHJyAwsolPnxKr0hr0+U7DNRAkuVYlbfWQOeZvisVz38jbj11vdEp512/pZSPH0wHWm/bsvlcf3ZrwqAVkrh6q7zXiRgQXm5gQUUx/x4ZeoKmuPQQw/mPqnmXofuZc2FrOG+ysasHKaw0vH2MsSr2888N6565ZscaQfawvQVlJ8JLKAQGvHq4f21mNwxFtNPTgbQOo2Y1XNKf3T1dkWVdHoKa+1LXxQrT18XReVIO9Bupq+gEkxgAfkbnY549z/NxavR2Tj4P/bXJ0aA1kqruenV1Xswetb2VepJhp2cwkrTV0WNV6N9A3HD2ZfW1wVNXQHtZPoKqsEEFpC1FK/S5NW9D07WJ6+sDELn1I+/D/dG3wtWlH7FcMPozvj6H2+Ndlv9wg0x/MLiPX0wHWlP64I7Vo4EQDuZvoLKMIEF5KsRr/7x/rGYemwigM6a/yTDst/L2jWyMW6/8O3x1vu/HO00dPppUSTWBYFOM30F1WECC8hSPV7991p8+1vPeMogZK53XX8pVwzbPYW1cv1psfacF0cRWBcEcpDC1faLXxpAJZjAAvKT4tXr75mNb/2De1dQBI2prPqK4Sl90XfmYCmmsto9hTX8gmKsDqanC/76hVdYFwQ67pqNpwdQHSawgOy8867p+PJ/fca9KyiwxophmswqsnZNYfWvGY51578scnb3aZvi2i2XWRcEsmD6CiqnVu4LrEDh/C9fnxSvoATS6u/Eg2Mx9o97Y+KHB2J2vJjTlGkKa9slV0arrT5rfeRqT99AfOiCn4+f3fpe8QrIhukrqB4TWEA2fvGO8fjCPxwMoJyKOpW1enxffP2PtsbwxL5ohZ6BgTjjpy+M3LhzBeTK9BVUkgksIA/iFZRfUaey9g8Ox62Xtm4Ka3jTWZGbr5x5blz82l+Ka7ZsFa+A7HzhJcW4GQg0lwksoOPEK6iuokxltWoKK7fpK3eugNy9f92IgAXVZAIL6KwP3TkmXkGFFWUqq1VTWCvXnxY52LFyTbz10ne6cwVk73fcvoLKMoEFdMy1d43HtX8rXgGHy3UqK01hffvTF0UznfHKC6NnsHP/d7pzBRSJ6SuotFpvAHSAeAUcT5rKSq/JR8ajby5k9awbiO7Bzg+Npyms2y98e7z1/i9HM6Tpq07FK+EKKJp0uN30FVSbCSyg7cQrYLF61x2ayOpZ09k/e9swujO+/sdboxk6NX11ywsvjGvP2xo7Vo4EQFHc8pIN8b51vm5BhZnAAtpLvAKWYnr3ZP3VNdAd/S8Y7Nh64a6RjU2ZwurE9FU60P6hC66I+0bOCIAiSdNX4hVgAgtoG/EKaJYUstKtrL4XrGj7euGxprCe6u6LH3f3x9Nzr7GuQ/88K2uzccrsZJw2Ox0vmJ047Nefdv6WGFizOtrBkwWBorv9pS+It5wyHEClmcAC2mPbvZPiFdA0tYnZ56ay2r1emKawvn7u62Ljg38X9/Wtin/oH3kuWh3PqbNT8dLpsfifJvfG+av62hKvhCugDNLhdvEKSExgAS139/apeM1/fCYAWqld64UjO78b/4//enN0/2RHLMX6/u54z9w/48+t7Y9WEK6Ashjp7Y57zz+7vkIIVF5NwAJaasfobLz8pn0xOu5LDdAeKWT1ntIXvWcONnW9sHfiQGz65p/Fhvu+Es2QAlYKWSloNcOOlWvimrlwtW3ThQFQBn+46Yz4tTNPDYAQsIBWSvHqNZ/fX/8I0AlpvbAZd7IG9z0RF3z5wzG4/4lophSvPrppZbx4sCeWSrgCyihNXW2/+KUB8CwBC2iNNHGVJq/EKyAH6eB77+n9S1ovHNr9UFz4Fx+uT2C1yoc2royfW7u4FRnhCiizFK+sDgLzOOIOtMZbv/iMeAVkY2bfdP01+cj4ou5kpcmrn/qrj7c0XiV/uHMsXrxi1YImsYQroOyuPuNU8Qo4igksoOmuvWvcEweBrKU7WX2n90fPuoHjrhemaPXyL36g6WuDxzPU0xV/fPaq497EEq6AKkjhKh1uTwfcAeYxgQU0l3gFFEFtYrY+jRVzr+PdyUoH29sVr5IDM7X4w50H41MvHjrsx4UroEqu2Xi6eAUck4AFNM3d26fEK6BwpndP1l8pZKXVwp41vfXVwWY9bXAxvndguv46f6hXuAIq5/3rRuJ9cy+AYxGwgKZI966u+ouxACiqRshKB9/P2fGn0Sk3Pd0VP/g37427120KgKpIq4O/s/H0ADges5nAsqUnDr7m8/sdbQdKoX/3Y3Hmj74enfLI6DPx3QPTAVAlaXXQ4XbgRAQsYNmuveugeAWUxuYn/8/otI33fScAqsLqILAQAhawLDf8w0Tc8PcTAVAWp+x/IDpt/Q/+RwBUgdVBYKEELGDJ0tTVh+5w9wooj76ZsRgeezg6rW/8YKwY3RMAZfeFl2ywOggsiIAFLEmKV+nuFUCZrB7bEbk4dceDAVBmafLq8uGhAFgIAQtYkmv/1t0roHzSBFYuesfHA6Cs0tTVNRvXBcBCCVjAoqW7V9vunQyAsunNKGClNUKAsrrrvBcFwGIIWMCiuHsFAMBy/OGmM9y9AhZNwAIWxd0roMyme1ZGLqYGVwRA2bx/3Uj82pmnBsBiCVjAgl1717i7V0CpHezP5x7L2MjaACiTNHWVDrcDLIWABSzI3dun6ofbAcrs4EA+AevgyCkBUCbp7pXVQWCpBCzgpNLU1VV/4e4VUH5TPSvj6dVbotPS9NX+M84KgLJw9wpYLgELOKk0eWV1EKiKp1afF5329KaXBEBZXH3Gqe5eAcsmYAEntO3eibnXZABUxcPrXx+dtvOinw6AMkhTV9e4ewU0gYAFHFeaurr2b8cDoEqmztwZT79gdXTKMxteEPte2vk1RoDlSvEq3b0a6fW2E1i+3gA4DquDQJV0vfgb0X3+HRFDT8U/v7w7fuZ3oyN2vel/jtWnnRbTExMxcfBgTI65QQgU0xdessHdK6BpBCzgmKwOAlUxP1w1HDylOx76+RXxkv/S3qev7n711nj6olfWv907MFB/rVi9Og7u3y9kAYXyOxtPj8uHhwKgWQQs4Cij4zWrg0DpHStczffQzw/Guu9NxvCjM9EOE6eeFo/8v95+1I939/TE0MhIPWSliDUx95qdac8/E8BSpHh1zcZ1AdBMXbU5ATDPh+4cixv+fiIAyuhk4Wq+FU/Pxitv2h8r9rR2nXp65cr47kc/ORexFvaGL4WsNJUlZAG5uXx4Zf3uFUCT1QQs4DDp5tWLP7M3AMpmMeFqvlZHrBSv/vn/+7EY27gpFqsxkTU9aeUb6Lx07+re8892tB1oBQELOFyKVw63A2Wy1HA1X6siVlobTPFqoZNXx5MmsdzJAjqp8cRBR9uBFhGwgOfd8A8T8aE7vPkByqEZ4epIL/kv40077P7Ya/9N7PyFt8f0yuYdOU4ha+KZZ2JyfNx6IdA2aeIqTV6JV0ALCVjAIWnq6uU37asfcAcotNP/NXpe8eWItTujFdI01ov/6kBsuG86lmL0xZti11v/bex76XnRSu5kAe1y13mbPXEQaLWapxACddf+7UHxCii2uXCVJq661v8wWungKd3x3ctq8a8vm431D0es39EVpz7WdcK/Zt+ptXhic8Tjm2pxcPOKWN3ieJX0r1xZf01PTMTEwYPWC4GW+MJLNohXQFuYwALiK9+fjLd98UAAFFKbwlVDbWwqZh7ed9SPn/JYRN9kRO+8h7juPzVibFXE9MDhv3bN+X8c3QPtfcR8405WClqmsoBm+J2Np8c1G9v7tQyoLCuEgMPtQEGt3RndL7+tbeGqYebRZ6K2dyKWo//Uy2LoRb8SnWK9EFgu8QpoMyuEUHXb7p0Qr4BiGXrq0MTVi78R7Vabmll2vEomn7onVpz1jrZPYTVYLwSWQ7wCOsEEFlRYClev+fx+AQsohr6x6HrZXdH9srvr3+6EZkxfNXR6Cmu+NImVItbE3MtUFnAi4hXQISawoMrS4XbxCsheBuEqadb0VUOnp7Dm6+7picHVq+uvRsianpwMgPnEK6CTBCyoqBSutt3rzQmQt66N90f3K75cXxvstGbGq4aJZyNWThrrhY6+A/P92lmniVdARwlYUFFp+gogW21+suBCzI62IGA9cWcMrn99dPXk9wj6NJU1NDJS/7apLKi2q844Nf7whesDoJMELKigu7dPm74C8pQOtL/iy/XJq5zU49VU81euazMHYnwuYuU2hXWkI6eypsYPRm3WGVWoghSvPr/5jADoNEfcoYJe/Jm9bl8BecnkztXxTD+4pyUBK0nTV2su+KMsp7COpzY7Oxexxk1lQcmJV0BGHHGHqtl274R4BWSl69y5cHXBHVmGq6S2f7Jl8ar+9585EAd33RYrX/i+KIqu7m63sqDk/peNp8f/5uYVkBETWFAxpq+AbGR45+pYZh7eF7WxqWi1Nef/cRZPJFwOt7Kg+Lq6u+JdLzgzvnTm2gDIiAksqBLTV0AWMr1zdSy1qZm2xKvk4KO3xdCLfiWKbP5U1vgzz9TXDE1lQXGkhze8+sz18dn1IwGQGxNYUCGmr4COyvzO1bHMPPpM1PY2/+mDx1OGKawjpdXCiYMH69NZQL56+/vj0vWnx1+dORxrursCIDMmsKAqrr1rXLwCOuf0f42eV/9ZffqqKOrTV22MV0kZprCO1DswUH+tWL36UMyyYgjZGRgaikvWnRJ/efpq8QrIloAFFZDC1bZ/au+bMIC6tC546Z9mf+fqWNodr5LJp+6JFWe9o3RTWElaTXL4HfKS7l2tWD0cr1w7LF4B2ROwoAK23Ttp+gporwKuCx5pdrQz4f/Ajptj9bn/PsosxayhkUM3dhorhlPjB6M267IFtEv6PFx1yinxohUD4hVQCAIWlJzpK6DtCrgueKR6vJrqTPif3v9ATM29+lafF1XQWDGszQ7Xj75bMYTWS5OQK4eHY1N/r3gFFIaABSVn+gpom76x6J4LV0V4uuDJzP6ks1Nj44/eFn0ln8I6Uld392Erhu5lQfM1VgbTzasX9nbX41X6CFAEAhaUmOkroF26zr0rui+4o7DrgvPVxqY6Nn3VULUprCMdeS9r6uDBGD9wwL0sWIb0lMGhtWvrn1/iFVBEAhaUmOkroOXW7ozul99WyCPtx9Op21dHquIU1rGkN9sDq1bVXzNTU/WprLRqKGbBwsyfukrEK6CoBCwoKdNXQEulI+0X3BHd594VZVKbmunI0wePpepTWMfS09cXK9esiZh7NY6/e5IhHN/8qatEvAKKTMCCkrpn+5TpK6A1SnCk/Xhmdx+MnBx8ZFv0nff/D47WOP6eiFlwuCOnrhLxCig6AQtK6tq/HQ+Apirp1NV89ftXGZkZezgmfnJPDJx2WXB8YhY878ipq0S8AspAwIIS2nbvhOkroKnSkwXTEwbLcKT9eOq3r6by+9qZbmH1r31ldPUMBSc3P2a5mUWVpGA1NDLy3L//DeIVUBZdtTkBlMqLP7NXwAKaYy5YpXCVAlbZTT+4J8uAlQye9Y5YMfdi6RpPM5yci1nTk5MBZZHWBQeHVsXg6tVH/Zx4BZRIzQQWlIzpK6BZus69K7ovuKPUU1cN9dXBTONVMvHEnTG4/vWmsJZh/tMMU8yqrxqOjYlZFFYjXKU7V13dRweqTXPR6qviFVAiAhaUjNtXwLINPRXdl/5pdK3/YVRFfX0wY7WZAzE+F7FMYTVHiln9K1fWX7XZ2XrMmpx7uZtFUaR/d1esXn3Ynav5Rubi1q2nrRKvgFIRsKBE7t4+bfoKWJYqTV011KZmorY374CVpCmsgVMvi+6BdUHzpMmVvhUr6q+kHrPSmuHcx5np6YCcnCxcJSlepcmr8/t7AqBMBCwokWvvyuvx70CBVOjW1ZFq+/N68uDxpCmsg4/eFkMv+pWgdeYfgW+sGh66mzURtVmnY+mMhYSrRLwCykzAgpJIk1f3bPcnxcDiVeEJgycy+3Rx4v/kU/dE/2mXRd/q84LWm79qmKSYNTU5Wf/odhatdrIbV0cSr4CyE7CgJK79W9NXwCLNBauuC+6I7nPviqqq377K+Hj7sYw/elv0nfvvg/Z7bjpr9Wq3s2iZ+gMH5qLpQsNVIl4BVSBgQQmk6att9/qTYGARTv/X6ElTV0NPRZUV4fbVkab3PxBTcy9TWJ115O2sxrphY0JL0GKxevv762uCjRXWheqae/3eyErxCig9AQtK4KsPiFfAwnW94rZKT1011I+3jxXj/tWRxrbfHMM/9ano6hkK8nDkuuHM1FT9le5npY+CFsey2DXBo/76udeNpwzFu1f1B0DZCVhQAjf8Q/EmCIAOGHoqerb+ScTanUHE7O7irl7PTu6O8SfujBVnvSPIU09fX/11ZNAyoUWKVv0r5mLn4OCip60O+/uEeAVUi4AFBbft3on6CiHAiXSde1d0X3BHZQ+1H0tRp68aJuYC1uD615vCKogjg1YKWDNzMSsFrRS2HIUvtxSt+gYG67et0r8HS5m2OuzvF+IVUD0CFhTcLW5fAScyF6zSEwbTkwZ5XhGPtx+pNnMgDu66LVa+8H1B8aSVw+55N7SSNJnVmNKydlh8zY5Wz/19Q7wCqknAggJLk1f3bJ8OgGNyqP24ini8/Vgmnrwz+tb+tIPuJdF4ymFjqSw96XD+2uHM9NTcj9WCfKVD7H3pf8e5j8tZDzyR31wzKF4BlSRgQYFd+7fFvd8CtFbX+XdE9/lfC45W5OPtxzL+6G3Rd+6/D8onTew0olasXl3/sTSVNTs9/fyU1ty3Z6b9YVanpEm6vsHBQ+uhcx+bNWV1PB+ei1cfXrMiAKpIwIKCStNX26wPAkcaeiq6L/3T6Fr/w+DYiny8/Vim9z8Qk6Pfjv6Rnw7Kr756OPeaP93TmNSqv9JtrfTRtFZL9PT21v9/365gNZ94BVSdgAUFdc/28kwPAE2SVgYv+98caj+JMk1fNRz88a31NUIH3avpsEmteY4Vtuo/ZmJrQVKsSqGq99kD/M28Y7VY4hXA3O93tTkBFM6LP7PX0weB53S94rboPveu4MTS8fbZx56JMho86x2xYu4FC/FczHo2bjVWE2dnZyo3uZUm2lKcanzsffbbnYpVRxKvAOpqJrCggO7ePi1eAYdYGVyUshxvP5aJJ+6MgVMvi+6BdQEnk0JNcqxD4ylspaBVD1zz49azT0WcffbHiiA9CbCrq/u51cvu3t5DH7u6DkWr3rzfDolXAM8TsKCAtt1b3jdgwCJ4yuCilO14+5FqMwfiwI6bY7WD7ixTmjzqeXb66ERvFlLgasSuJMWuSN9/dsFj9tlVxfmxq/7XHGcBpPHrUmA6nsbPpX/GrrkIVf+xZyNUI0yln2tMUOUyRbUU4hXA4QQsKBjH24Gk69y7ovsVtwULV7bj7ceSDrpPzb3SPSxotUYgagQkbyyaR7wCOFpx/0gCKsrxdqi4vrHo3von4tUSlHn6ar6x7TfXp7GAYhKvAI5NwIKCueHvrQ9CZQ09FT1v+FR0bbw/WJx0vD2mqnE7cHZyd4w/cWcAxSNeARyfgAUFcv9jM3Hf48U4mgo0V9eLvlGPV+5dLU2Zj7cfSzroPjuxO4Di+JXVA+IVwAkIWFAg1//DeADV03X+HdH96j+trw+yeGU/3n4sjYPuQDG8Z6g/fm/tygDg+AQsKJB7tk8HUCGNe1fnfy1YuqpNXzWkg+6To98OIG8pXt146lAAcGIeFgIFse3eifoTCIGKSPeufu4GK4NNUL9/VVEHf3xr/YmEXT3eHEOOxCuAhTOBBQXxlQc8fRAq4/R/de+qSeqrgxU53n4s6aD7wV2eWAk5Eq8AFkfAggJIk1df/RcBC6qg69y7Dk1euXfVFFWevmqYePLOmNr/QAD5+JmBXvEKYJEELCiAe7aLV1AFXa+4LbpfYVqmWerH2yt6/+pIBx/ZFkAeLujviVvXrQoAFkfAggK44e+9AYNSaxxrP/euoHlqBzz4omFm7OEYf+LOADorxauvnr461nR3BQCLI2BB5tL64H2PzwRQUulY+xs+FV0b7w+ay/TV4cYfvS1mJ3YH0BniFcDyCFiQuRv+fjyAklq705MGW6S+Pjhm/Xq+2syBOLDj5gDaT7wCWD4BCzL31e97AwallJ40KF61TO1p8f9Ypvc/YJUQ2mxTb7d4BdAEAhZk7O7t0/UVQqBcPGmw9Wb3TwbHllYJ0zQW0HriFUDzCFiQsW33ut8CZdN1/h2eNNhi9dXBKfH/eOqrhNutEkKrNeLVC3u95QJoBl9NIWP3bPcELSiTrrlw1X3+14LWmh0V/09mavQ7MbX/gQBaQ7wCaD5fUSFT1gehXLpe/afRfe5dQevVrA8uyNj2m60SQguIVwCt4asqZMr6IJRE31j0vP6T0f2ibwStV5++mq0FJzc7uTsO7rLOCs0kXgG0jq+skCnrg1ACQ08dOta+dmfQHrVnTF8txsSTd1olhCYRrwBay1dXyJD1QSgB8artalMz1geXwCohLJ94BdB6vsJChqwPQsE14tXcR9qndsDk6lJYJYTlEa8A2sNXWciQ9UEoMPGqY2p7xf+lskoISyNeAbSPr7SQGeuDUGDiVcfU1wfHpoKlO/DgZ6wSwiKIVwDt5astZMb6IBSUeNVRtf3i1XKleHVg+80BnNxId1fcetoq8QqgjXzFhcxYH4QCWrszet7wKfGqg2afPhgs39Tod2L8iTsDOL4Ur9Lk1fn9PQFA+whYkBHrg1BAKV6lyau+saAzahNz4X/K185mGX/0tpid2B3A0cQrgM4RsCAjX/2+x79DoTTWBsWrjqqNWr1upvoq4Q6rhHAk8QqgswQsyMhXv++GCxSGeJWN2f3if7NN73/AKiHM0zX3Eq8AOkvAgkzc/9iM9UEoCgfbs2F9sHXSKuHM2I6Aqkvx6sZThsQrgA4TsCATdzveDsUgXmVl9qnxoDXSKuEzD/6v9Y9QVY149e5V/QFAZwlYkImv/IsVGMieeJWd2pjV61aanXwyDu66LaCKxCuAvAhYkIG0OniPCSzIm3iVnXq8sj7YchNP3hlT+x8IqBLxCiA/AhZk4J7tJggga31j4lWGZj19sG0OPPiZmJ3YHVAF4hVAngQsyMBXHhCwIGfiVZ6sD7ZPuoN1YMfNAVXwm2sGxSuADAlYkIF7dlgfhFx1vfpPI9buDPJifbD9pvc/EONP3BlQZh+ei1cfXrMiAMiPgAUdlp4+ODpeCyA/XeffEd0v+kaQn9p+D77ohIOPbHMPi9ISrwDyJmBBh2271w0XyFE9Xp3/tSBPswJWx4xt/2x9pRDKRLwCyJ+ABR3m6YOQn65z7xKvMlabmLY+2EGzk0/GMw9+JqAsxCuAYhCwoIPuf2wmdox6EwZZWbszul9xW5CvmqcPdpx7WJSFeAVQHAIWdNDdpq8gL0NPRc/WPwnyVjvg6YM5cA+LohOvAIpFwIIO+sq/uOEC2egbi56fu6EeschXbWomahMzQR7Gtt8csxO7A4pGvAIoHgELOsj9K8hH96v/TLwqgNp+01c5mZ3cHQd23BxQJOIVQDEJWNAh1gchH+mJg10b7w/yV/P0weyke1gHH3U3jmIQrwCKS8CCDvnq970Jgxx44mBx1NcHx0xg5Wh8LmBNjn47IGe/snpAvAIoMAELOsT6IGRg6KnovuCOoBhqB3zdzNnY9s+6h0W23jPUH7+3dmUAUFwCFnTAjtHZuO9xR4iho9ITB9PR9r6xoBhqz5hczVlt5kDs/8HH6x8hJyle3XjqUABQbAIWdMA9263AQKd1v+LLjrYXyUzN/asCmJ18MsZ+fGtALsQrgPIQsKADHHCHznK0vXjcviqOyafucdSdLIhXAOUiYEEHuH8FHbR2p6PtBTRr+qpQHHWn0y7o7xGvAEpGwII2u/+xmfoNLKAD0t2rrX8SFI8JrOJx1J1OSfHqq6evDgDKRcCCNrM+CJ3Tff4d7l4VUG1i7uvmlPBfNI660wmNeLWmuysAKBcBC9rsbgfcoSO6zr0rul78jaB4avusDxZVOur+zIOfCWgH8Qqg3AQsaLN7dpjAgrYbeiq6L7gjKKbamK+bRTa9/4EY+/G2gFYSrwDKT8CCNkrrg6PjtQDaq+fnbojoGwuKpzY14/5VCUw8eWeMP3FnQCts6u0WrwAqQMCCNkoH3IH26nL3qtBqB0xflcXBR7bF1P4HAppJvAKoDgEL2ugr/+KOC7RVWh08/2tBcZm+KpcDD37Gkwlpmka8emGvtzQAVeCrPbSRCSxor/rqIIUmYJXLoScTXidisWziFUD1+IoPbeL+FbSX1cHiq8erqdmgXGYnd8czD/1BPWbBUohXANXkqz60iekraKO0Oviyu4Jiqx0wfVVWM2MPx4HtNwcslngFUF2+8kObuH8F7dOdpq88dbDwamMOuJfZ1Oh3YuzH2wIWSrwCqDZf/aFNTGBBe3S9+Bv1FwU3U3P/qgImnrwzDj56W8DJiFcA+B0A2iDFK/evoD3q01cUnnhVHeNzAWv8iTsDjke8AiDxuwC0QTrgDrSew+3lMbvf2nWVHHxkW0z+5J6AI4lXADT4nQDa4O7tJgmg5RxuL5dx4b9qxh65NWbGdgQ0jHR3iVcAPMfvBtAG9z/u/hW0msPt5VGbmonahK+bVVObORD7f/BxEYs68QqAI/kdAVpsx+hs/QW00NBTDreXSO2A6auqShHrmQc/E7MTu4PqasSr8/t7AgAaBCxosXusD0LLOdxeLg64V9vs5O7Y/4PrRKyKEq8AOB4BC1rMAXdoMdNXpSNgIWJVk3gFwIkIWNBi9z/mjgu0kumrcqlNzEX/KWvXiFhV0zX3Eq8AOBEBC1podLwW9zngDq1j+qp0agd9zeR5IlY1pHh14ylD4hUAJyRgQQvdZ/oKWsr0VfnUnpkMmC9FrGce+oP6gXfKpxGv3r2qPwDgRAQsaCEH3KGFTF+VUm3c3UCONjP2cH0SS8QqF/EKgMUQsKCF7t7hjRi0iumr8qlNzbh/xXGJWOUiXgGwWAIWtJAD7tA6Xet/GJRL7YDoz4k1IpabWMUmXgGwFAIWtEiKV+mIO9B89dXBoaeCcqmNWbvm5ESs4vvNNYPiFQCLJmBBi9z3uEkCaJWuF7l9VUruX7FAnk5YXB+ei1cfXrMiAGCxBCxoEU8ghBZJx9utD5ZOun9Vm/B1k4UTsYpHvAJgOQQsaJF7tpskgFboetldQQmNi1csnohVHOIVAMslYEGL3Pe4N2PQCt0bvxuUj/tXLJWIlT/xCoBmELCgBe42fQWtMbLT8faSqpnAYhlSxNr3wG/FzNiOIC/iFQDNImBBC9zv/hW0hNtX5WUCi+WqzRyoR6zJn9wT5EG8AqCZBCxogbu3eyMGrdC18f6gfMQrmunAjpvj4KO3BZ0lXgHQbAIWtMDDo7MBNFn/QRNYJWV9kGYbnwtYIlbniFcAtIKABU02Ol5zwB1aYe3OoJxMYNEKKWKN/Xhb0F7iFQCtImBBk93n/hW0hPXBEpv0dZPWmHjyztj3wIc9obBN3jPUL14B0DICFjSZA+7QGl0jJrBKaaYWtQlfN2mdmbGHY/8PrhOxWizFqxtPHQoAaBUBC5rMAXdojS4rhKVUm5gOaLXZyd2HnlA4+u2g+cQrANpBwIImc8AdWqD/4KEXpVM7IPrTHrWZA3Hgwc847t5k4hUA7SJgQRM54A4tYvqqtKwP0m6N4+4paLE84hUA7SRgQRM54A6t0dVn+qqsauNWCGm/+nH3f/4td7GW4YL+HvEKgLYSsKCJHHCHFhl6KiihmVrElLVrOiPdxUrH3d3FWrwUr756+uoAgHYSsKCJHHCHFukfC8rHAXc6LUUsd7EWpxGv1nR3BQC0k4AFTeSAO8DCOeBOLtJdrH0PfNhK4UmIVwB0koAFTeSAO8DCOeBOTmbGHq6vFE785J7gaOIVAJ0mYEGTuH8FsEiTvm6Sl7RSOLbjZk8pPMKm3m7xCoCOE7CgSXaMeiMGLTO5MiiZmZoJLLLlKYXPE68AyIWABU1y93bHiKFlplYE5eKAO7lL01h7v/erlT7w3ohXL+z1lgGAzvO7ETSJ+1fQOrWnNwblUhv3NZNiSAfe9373Vys3jSVeAZAbvyNBk7iBBS00dmpQMlO+ZlIcVZvGEq8AyJHflaAJRsdr9RfQIpMrIg6IWGViAosiakxjlflJheIVALnyOxM0wX2mr6DlZndeEJRHbdwNLIqp8aTCA9tvLt1aoXgFQM787gRNYH0Q2mDnhUFJzNTmKoCpVYpt8ql7nlsrrM0ciKITrwDInd+hoAnu3j4VQGvVnjjn0CohhecJhJRJWivc98+/Vei1QvEKgCLwuxQ0wcOjswG03uwPXhOUwKSpVcqlsVZYxPtY4hUAReF3KmiC+x73ZgzaofaDnzWFVQK1CV8zKaeihayR7i7xCoDC8LsVLJP7V9BGc/Fq9ntvDIqtNmVqlXIrQsiqTR+IVzz1FfEKgMLwOxYs045RAQvaKU1h1e9hUVxWCKmII0NWLk8tTP8c+39wXdz20Jfiqu/8QQBAEfQGsCz3mcCCtpv9xr+N7p+7PrqGng6KxwohVdMIWUn/qZdF/2mXRd/q86ITpvY/EGPbb67/MyVf+PFf1z/+x1f+/wIActZVmxPAkr31Pz0TX/0XTyGEdutauzO6X3v93LvBg0FxpCcQzvxob0DVdfevi4H1r4/+kZ+O7oF10WppZfDgY1+OiSfuOObP/+xpF8RfvPqaGOkbCgDIUE3AgmV6+U37HHGHDnnL//REfO+c/xA7pn4SFENtbCpmHt4XwPN6Vm6KvrmQ1bv6vKZPZqVwNf7knXPh6s6ozRw44a+9eM3Z8bdbf1/EAiBHAhYsV/fH9gTQfu+7uD++8LaheHhqd/zcwx8XsQpi9unxmH3iQADH1tUzNBeyttRjVs/KzdG7YlN09S4uKKUbV5Oj346p0e/E9P4HFvXXilgAZErAguVITyC8+D+YJIB2a8SrBhGrOFK8ShELWLgUtdKUVlfPyvrq4bGCVopWMwd3zH38yUknrU5GxAIgQwIWLMdXvz8Zb/2iSQJop7ds6Yu/eM+qo35cxCqGmZ37o7Z/MoC8iVgAZKbWHcCSeQIhtNeFZ/bEf3zbsd9MbepbF3+z6WOxue+0IGMz/twMiuDevQ/Gy7/+/4kdB54IAMiBgAXLIGBB+6R4dddVq2NksOu4v0bEyl9tfDqAYtg+9ni85r/9pogFQBYELFiGh0dnA2i9hcSrBhErY2n6atYEFhSJiAVALgQsWIb7HjeBBa22mHjVIGLlqTbtayYUkYgFQA4ELFii+60PQsstJV41iFgZcv8KCkvEAqDTBCxYoj3j3ohBK20e6Y7b37NqSfGqQcTKzKTwD0UmYgHQSQIWLJEJLGidFK/+9hdX1z8ul4iVj9qUu4FQdCIWAJ0iYMES7RgVsKAVmhmvGlLE+vaLPhUXDmwKOsgBdygFEQuAThCwYIkccIfma0W8ahjpWVmfxBKxOscEFpSHiAVAuwlYsERWCKG5WhmvGkSsDnPEHUpFxAKgnQQsWILR8Vr9BTRHO+JVg4jVQVPCP5TNoYj1G3Hf6EMBAK0kYMES3Gf6CpqmnfGqoRGxLlu5JWgfK4RQTtvHnpiLWB8WsQBoKQELlmDvuDdh0AydiFcNjYj13jVbgzawPgiltmdqv4gFQEsJWLAEJrBg+ToZr+b7/Fm/LGK1Qc0TCKH0RCwAWknAgiUQsGB5colXDSJWG7h/BZUgYgHQKgIWLMHohEkCWKqRwa64/T2rsolXDSIWQHMcili/Gdse/usAgGYRsGAJ7jeBBUuS4tVdV62OC8/siRyliPWrp7w+aIFJXzehSvZMPRNX/uMfiFgANI2ABYs0Ol6rv4DFyT1eNfyv6/9tfGzd2wOA5Un/tSRiAdAsAhYskvtXsHhFiVcN/3d7dxNcV3kmePy5kmULy46VBDcxlW6bQE2Xp7psDCwmqQKMKboCG4jZZQI2ZhE+qhvCEHpFbBZTM9Um7WQxJBuQCdSsmDbZzKIdLAg12Qy0DRtvcCyxSKCTKl01MRY42K0j6dqyrI/7fd9zzu9Xdeu69FHeSHDO38/7nB9dfb+I1WYXznl6K5SRiAVAuwhY0KDJKTdh0Ii8xasaEQugPUQsANpBwIIGmcCCxry0eyh38apGxGofE1hQblnE2jsdsZ47+UoAQDMELGiQgAX1G5mOV/dtHYg8E7EA2ufAyVdFLACaImBBg6qfWeAO9cji1Z4dq6MIRKw2OO+/ncAsEQuAZghY0KD3TGDBiooUr2pErBZ9IWABl4hYADRKwIIGVafchMFyihivakQsgPYRsQBohIAFDTB9Bcs7dPfawsarGhELoH1ELADqJWBBAyZMX8GS9t8xGE98a02UgYjVhHP+AQBYnIgFQD0ELGiACSxYXBav9u+6Ksoki1gvXvv9AKB1IhYAKxGwoAFjVQELFipjvKp5cMPtIhZAm4hYACxHwIIGjE2cD+CSMserGhELoH1ELACWImBBA8arAhbUiFeXiFgA7ZNFrKfe/1kAwHwCFjRgTMCCGeLVlbKI9drXn4rhvrUBQGsOffB67Hvn+QCAGgEL6lSdujDzgrITr5Z27/pb4lebnxWxANpg5MOjIhYAFwlYUKcTnkAI4lUdtg9uFrEA2kTEAqBGwII6TU45Pki5iVf1E7EA2kfEAiAjYEGdxiYcH6S8nvjmGvGqQSIWQPtkEeumNx6P6rkzAUA5CVhQp7GqI4SU054dq+PQPSJMM2oRa8vA1QFAa45PfhC7fv2MiAVQUgIW1GlswhFCyieLVyO7h4LmiVgA7SNiAZSXgAV1Gq8KWJSLeNU+mwc2ilgAbSJiAZSTgAV1GhOwKBHxqv1ELID2EbEAykfAgjpUpy7MvKAM7ts6IF51SKkjVl8lANopi1g3vfFYjJ35OAAoPgEL6jBu/xUlsX1Tf7wkXnVUaSNWv0sOoP1Of/pR7Hr7GRELoARcTUIdJkxfUQJZvBrdtz6GB03KdJrjhADtI2IBlIOABXUYr34RUGTiVfeVLmINuOQAOkfEAig+V5NQhzFHCCkw8ap3TGIBtI+IBVBsAhbUwRMIKaotw33iVY+JWADtI2IBFJeABXUQsCiiLF4de1i8SkEZIlbFEUKgS0QsgGJyNQl1mDxriTvFUotX2TtpyCLW/7/uf8b2NZujkDyFEOgiEQugeFxNQh1OfGSJO8UhXqVruH/tzCRWESNWxY8b0GUiFkCxuJyEFVSnTF9RHOJV+gobsUxgAT0gYgEUh6tJWMG4JxBSEOJVfhQyYq32cwf0xmzE+mGcqJ4KAPLL1SSsYMIEFgUgXuVPLWLdu+6WKIQ+P3tA75z+9OPpiPUPIhZAjrmahBWMV+2/It/Eq/zKItZrf/lUPLjhtsi7Sp+nXQK9NXHuExELIMfczcAKxhwhJMfEq2J48dpH8h+x+qcDlogF9JiIBZBf7mhgBWNVAYt8Eq+KpQgRq9IvYAG9J2IB5JO7GliBgEUeiVfFlPuINdAfACnIItZNxx6Ll8ePBgD54M4GVjB51hJ38mV4sBJHvrtOvCqoLGL93Vfujlwa8DMJpCO7wnvo3edFLICccCUJKzCBRZ5k8Wp03/rYvsmkS5H90zUPxLMb74+8qQhYQGJELID8cCUJK6hOmcAiH8SrcvnR1ffnLmIJWECKRCyAfHAlCcswfUVeiFfllLuItdrPJ5AmEQsgfQIWLGNsQsAifeJVueUqYlniDiQsi1h7pyPWcydfCQDSI2DBMianBCzS99LuIfGq5PISsWaOEPZVAiBlB06+KmIBJEjAgmWMTdh/RdpGpuPVfVsHAnITsfoFLCB9IhZAegQsWEbVBBYJy+LVnh2rA2pyEbHWCq5APohYAGkRsGAZlriTKvGKpaQesUxgAXkiYgGkQ8CCZQhYpEi8YiUpR6zKGvvagHwRsQDSIGDBMibP2oFFWvbfMSheUZdkI9ZVqwIgb0QsgN4TsGAZJrBISRav9u+6KqBeWcR68drvR0oqawQsIJ9ELIDeErBgGdUpE1ikQbyiWQ9uuD3BiOUYIZBPIhZA7whYsATTV6RCvKJVyUWsQVNYQH6JWAC9IWDBEuy/IgXiFe2SUsSqCFhAzmUR66n3fxYAdI+ABUuYcHyQHhOvaLcsYr329adiuG9t9FJlSMAC8u/QB6/HvneeDwC6Q8CCJYxXvwjoFfGKTrl3/S3xq83P9jRiVVbZgQUUw8iHR0UsgC4RsGAJYxN2YNEb4hWdtn1wc28jVn/FInegMEQsgO4QsGAJnkBIL4hXdEuvI1ZlaCAAikLEAug8AQuWIGDRbeIV3dbLiGUCCyiaLGLd9MbjUT13JgBoPwELljBWdYSQ7nnim2vEK3qiFrG2DFwd3VRZvyYAiub45Aex69fPiFgAHSBgwRImz5rAojv27Fgdh+7p7VPhKLeeRKxsD9aAyxCgeEQsgM5w5QhLcISQbsji1cjuoYBe2zywsesRq7J+dQAUkYgF0H4CFizBEUI6TbwiNd2OWPZgAUUmYgG0l4AFizB9RaeJV6SqmxHLHiyg6LKIddMbj8XYmY8DgNYIWLCI8QnTV3TO7VtWiVckrWsRK9uDtXYgAIrs9Kcfxa63nxGxAFokYMEiJkxg0SHbN/XHkf+6LiB13YpYlaFVAVB0IhZA6wQsWMTklAks2i+LV6P71sfwYCUgD7oRsUxgAWUhYgG0RsCCRdiBRbuJV+RVpyPWTMDq83sBlIOIBdA8AQsWMWYHFm0kXpF3nY5YfcOWuQPlIWIBNEfAgkWYwKJdtgz3iVcUQi1ibV+zOdqtsn51AJSJiAXQOAELFiFg0Q5ZvDr2sHhFcXQqYlXWrHKMECgdEQugMQIWLGKs6gghranFq+wdimS4f237I1Z/xRQWUEoiFkD93FkBtJl4RdF1ImLZgwWUlYgFUB93V7CIcUvcaZJ4RVm0O2I5RgiUWRaxbjr2eJyongoAFucOCxbhCCHNEK8om1rEunfdLdGy/oopLKDUJs59Erve/gcRC2AJ7rIA2kC8oqyyiPXaXz4VD264LVplDxZQdiIWwNLcacECpq9olHgFES9e+0jLEauydsAxQqD0RCyAxbnbggUmz14IqJd4BZe0I2L1fXUwAMpOxAK4kjsuWGBiSsCiPuIVXKnViNX35asCgNmIddOxx+Ll8aMBgIAFV5iccoSQlYlXsLQsYv3dV+6OpvRXZo8SAhDZP6s+9O7zIhZACFhwhaoJLFYwPFiJI99dJ17BMv7pmgfi2Y33RzP6NprCAqgRsQBmufuCBcYmTGCxtCxeje5bH9s39QewvB9dfX9TEWtmAmvAJQpAjYgFIGAB1E28gsY1G7H6htcEAJeIWEDZCViwwFjVBBZXEq+gec1ErJll7n2VAOCSLGLtnY5Yz518JQDKRsCCBapn7cDicuIVtK7hiNVfib6vDgYAVzpw8lURCygdAQsWqH4mYHG5Q/esFa+gDRqNWKawAJYmYgFlI2DBApMmsJhnZPdQ7NmxOoD2aChi9Veist7vH8BSRCygTAQsWKA6JWAxS7yCzmgkYvVtXBsALE3EAspCwIIFLHEnI15BZ9UbsSoDfVHZ4ImEAMsRsYAyELAAFhCvoDuyiPXjrz2w4teZwgJYmYgFFJ2ABfOYvmL/HYPiFXTR33/57njx2u8v+zWmsADqI2IBRSZgAczJ4tX+XVcF0F0Pbrh9xYg1M4XliYQAKxKxgKISsGCesQkTWGUlXkFvrRSxsimsvq8OBgArE7GAIhKwgNITryANK0Wsvi9fZQoLoE5ZxNr3zvMBUBQCFswzXv0iKBfxCtKSRazXvv5UDPctsri9vxJ9f2GhO0C9Rj48KmIBhSFgAaUlXkGa7l1/S/xq87OLRqy+Lw9GDLh8AaiXiAUUhStAmMcOrPIQryBt2wc3Lxmx+q9dFwDUT8QCikDAAkpHvIJ8WCpiVdYORGXd6gCgflnEekjEAnJMwIJ5xqomsIpOvIJ8WSpi9X1tyEJ3gAYdno5YO954LKrnzgRA3ghYQGmIV5BPWcR65xv/I7YMXH3xY5WBPgvdAZpwYvJU3PHrH4pYQO4IWDCPCazieuKba8QryLHNAxtnJrHmR6xsoXt2nBCAxohYQB4JWEDh7dmxOg7dY1ID8m7RiJUtdHeUEKBhIhaQNwIWzDN59kJQLFm8Gtk9FEAxLIxYjhICNK8WscbOfBwAqROwYJ7qlIBVJOIVFNPCiOUoIUDzZiLW2yIWkD4BC+YRsIpDvIJiuyJiOUoI0LSxTz8WsYDkCVgwj4BVDNs39YtXUALzI5ajhACtEbGA1AlYMEe8KoYsXo3uWx9AOcyPWNlRwr4NawKA5ohYQMoELJgjYOVfLV4NDzpGBGVyWcS6ZihiwOUNQLNELCBVrvBgjicQ5pt4BeV2MWINboz+zRvswwJogYgFpEjAgjkTJrByS7wCMrWIdeO666Lva/bgAbRCxAJSI2ABubZluE+8Ai6qRawdf/Gfou8rgwFA80QsICUCFsyZnDof5EsWr449LF4BlxvuXzsbsf7qP0dl7UAA0DwRC0iFgAVzLHHPl1q8yt4BFqpFrJtu+BtL3QFaJGIBKXBFB3OqZ4OcEK+AesxErOt+FDf99TZL3QFalEWsHcceixPVUwHQC+7+YE7VEcJcEK+ARmQR643r98fuv9klYgG0qHruT3HH28+IWEBPuAMEckO8ApqRRaz/c8Mz8dBf3xMAtEbEAnrFXSDMGauawEqZeAW06qWtfx97b/h2ANAaEQvoBXeCQPLEK6BdRrb9QMQCaAMRC+g2d4Mwp3rWUwhTJF4B7SZiAbRHFrGyxe4vjx8NgE5zRwhzqp8JWKkRr4BOySLW/q0PBACt2/vu8yIW0HHuCoEkiVdApx3Y+j0RC6BNRCyg09wZwpzxCUvcUzE8WIkj310nXgEdJ2IBtI+IBXSSu0MgKVm8Gt23PrZv6g+AbhCxANoni1g//eBIALSbgAVzqlN2YPWaeAX0iogF0D5Pvv/zeO7kKwHQTgIWzBGweku8AnpNxAJonwMnXxWxgLYSsIAkiFdACrKINXLz0wFA60QsoJ0ELAjTV702sntIvAKSsXfzXTF668EYHhgKAFojYgHtImBBCFi9lMWrPTtWB0BKdm7cFsfv/FlsWXtNANAaEQtoBwEL6BnxCkhZFq9GbzsoYgG0gYgFtErAgmljE+eD7hKvgDzI4tXxO1+InVdvCwBaI2IBrRCwgK4Tr4A8GR5YNzOJ5QmFAK0TsYBmCVhAV+2/Y1C8AnIpe0KhiAXQOhELaIaABdMmpxwh7IYsXu3fdVUA5FUWsY7vesFeLIAWiVhAowQsCE8h7AbxCiiKG4evt9wdoA2yiPXQO88HQD0ELKDjxCugaLJ4dfrbv4gnb/hOANC8wx8eFbGAughYEJ5C2EniFVBkh7Y9Mv16NABonogF1EPAAjpGvALK4Mkb7puZxnKkEKB5IhawEgEL6AjxCiiTLF4dv/OF2LP5rgCgOSIWsBwBC8IS93YTr4AyGh5YF4dvftqRQoAWZBFrxxuPRfXcmQCYT8CCELDaSbwCys6RQoDWnJg8FXf8+ociFnAZAQtoG/EKYFbtKYX7tz4QADROxAIWErBgWvWsCaxWPfHNNeIVwAIHtn4vRm89aBoLoAkiFjCfgAXTqp8JWK3Ys2N1HLpnbQBwpZ0bt8XobQcteAdoQi1ijZ35OIByE7CAlmTxamT3UACwtGwCK1vwPjL9Mo0F0JiZiPW2iAVlJ2ABTROvABqzd/NdprEAmjD26cciFpScgAXTxifOB40RrwCaYxoLoDkiFpSbgAU0bPumfvEKoEXZNNbxO1+IJ2/4TgBQHxELykvAAhqSxavRfesDgNYND6yLQ9seidPf/oVpLIA6iVhQTgIWTKtOeQphPWrxaniwEgC0Txavsoh1aNuj01HLhCvASkQsKB8BC0LAqod4BdB5T95wXxy/82eWvAPUQcSCcqlcmBZQcn3PTgRLE68Auu/13/0mfvD+z2du0ABYWjbFOnrrwdgy5Cg2FNgFAQtCwFrOluG++NfHvyReAfTI4fGj8dzJV4QsgGWIWFB4FxwhpPQcH1xaFq+OPWzyCqCXsqcVjt520LFCgGU4TgjFZwKL0hurno9v/HgyuFwtXmXvAKQhu0E7cPKVeHn8aABwpezprqO3/mPcOHx9AIViAgu4kngFkKbsiMzhm5+ePSaz1jEZgIWq5/4Ud7z9TJyongqgWNydApcRrwDSt3Pjtjj97V/EyHTMErIALidiQTG5Q6X0xibOB7PEK4B8yfZjCVkAVxKxoHjcpQIzxCuA/KqFrEPbHhWyAObUItabf3gvgPyzxJ3Se/P0n2PXS59EmYlXAMWRLXo/PH40Xh7/l5k/AxAz+wM9zRVy7YKARemVPWCJVwDFJGQBXE7EglwTsOCXJz+P7/zvM1FG4hVA8QlZAJeIWJBbAha8fPyzeOifP42yEa8AyiWLV2/+4f147uQrQhZQaiIW5NIFd65QQsODlTjy3XXiFUCJZMvdPbUQIGLvu8/HTz84EkC+uHuFksni1ei+9bF9U38AUE5CFlB2T77/85mJVCA/BCxKr3o2SkO8AmC+WsgavfVg3LfpWwFQJgdOvipiQY6sCii56tT5KAPxCoCl7Ny4beaV7cY6MH0z9/L40QAogyxiZfZvfSCAtJnAgpIQrwBYSXacMFtu7HghUCYmsSAfBCwogZHdQ+IVAHVbuPB959XbAqDIRCxIn4AFBZfFqz07VgcANCMLWaO3HYzfTscsj50HikzEgrRVLkwLKLGH/vlMvHz88ygi8QqAdsv2ZL35h/dnbvKyPwMUzYGt37MTC9JzQcCi9IoasMQrADotC1mHP/wXS9+BwhGxIDkCFhQxYIlXAHRTbSrrpx8ciROTpwKgCEQsSIqABUULWPvvGIz9u64KAOiF49VT8dNTR+Kt6aDliCGQdyIWJEPAgiIFLPEKgJQcHj8av/zdb+L13/8mAPJq71/dFSO3PB1ATwlYcMdLn8Rbp/8ceSdeAZAqRwyBvBOxoOcELChCwBKvAMiLLGb9ZDpkZZNZjhgCeSJiQU8JWJD3gCVeAZBXtacY2pcF5IWIBT1zYVUAuSVeAZBnOzdum3llxCwgDw5/eHTm/dD2R2N4YCiA7jGBRenldQJLvAKgqMQsIHU3brg+Rm87KGJB9zhCCDf9r3+PEx99EXkiXgFQFmIWkCoRC7pKwIJv/HgyxqrnIy/EKwDKKotZr//+NxbAA8kQsaBrBCzIU8ASrwBg1onqqXjrj9NBazpmvTn9DtArIhZ0hYAFeQlYe3asjpHd/qcIAAtl01jZdNYvZ2LWe1E9dyYAuimLWEf+y/7YMnRNAB0hYEEeApZ4BQD1szcL6IUta6+J0VsPiljQGQIWpB6wxCsAaF4WsLLJLEcNgW4QsaBjBCz4yn+vRnUqzV8D8QoA2qu2CD6bzjoxeSoA2k3Ego4QsKDv2YlIkXgFAJ1V252V7c1y3BBoJxEL2k7AghQD1vZN/XH8sS8FANA9tScb1qKWZfBAK0QsaCsBC1ILWFm8Gt23PoYHKwEA9E4Wst6bPDWzPys7bihoAY0SsaBtBCxIKWCJVwCQLkELaIaIBW0hYEEqAUu8AoB8mX/kMAtadmgBSxGxoGUCFqQQsMQrAMi/LGBlUSt7yuF71d96yiFwGRELWiJgUW5j1fPxjR9PRi9tGe6Lf338S+IVABRMdsRwdkrrvYtTWo4dQrmJWNA0AYty63XAyuLVsYfXz7wDAMWXBa0Tk7PTWW/NRS2gXIYH1k1HrH+MG4evD6BuAhbl1suAJV4BAJnacvjsfeYYoqgFhSdiQcMELMqtVwFLvAIAllI7eihqQbGJWNAQAYty60XAEq8AgEbNj1rHp1+WxEMxiFhQNwGLcut2wBKvAIB2yqJWNqH15h/fn45apyyKhxzKItbIzf8t7rv2WwEsScCi3LoZsMQrAKAbHEGEfDp889OxZ/NdASxKwKLc3jz959j10ifRaeIVANBrtWmtLGydqP5W2IIEiViwJAGLcutGwBKvAICUCVuQFhELFiVgUW6dDljiFQCQV1nYyo4jZmHrdBa47NiCrhGx4AoXVgXQEcODFfEKAMit2lPRdm7cdtnHazu2quf+dHFqK/uzuAXts/fd52d+r5644TsBzDKBRal1agIri1ej+9bH9k39AQBQFgvj1tiZf4uxTz8St6BJP9n2iIgFsxwhpNw6EbDEKwCAxS08ljh+5uOZnVtZ5BK4YHHHd71wcSISSkzAotzaHbDEKwCA5syf3hqfjloCF8zaefW2GL3tYEDJ2YEF7SJeAQA0b3hg6Ip9W/NlAWvszGzIyoJWFrlqRxRn4pcnJ1JQb/7x/Zmf8ex3BMpMwKLUJqfOR7uIVwAAnZPdvF86RrV46FopcpnkIq9++bv/F3s2/21AmQlY0AYju4fEKwCAHqsncmXG5o4m1o4rZu9CF0DaBCxKbfum1n8Fsni1Z8fqAAAgH7YMXTPzWkkWurK4NX+ia2L6z5OfX4pcM/Fr+uPQSRtWrwsoOwGLUtsy3Be3X7cq3jr952iGeAUAUFyzkasWurYt+7Xzjy/ORq8/XRG8MrNL6QUvGrNl7crBFYpOwKL09u5Y01TAEq8AAKi5/PhifeZPeM2PXrOf+7eLHzPpVW5ZvLpxQ2M/W1BEAhall0WoN0+fi5ePf17394hXAAC06vIJr/pl4WvmvRa75qa75sev+R+fH8js9sqfA1sfCCCicmFaQMlVpy7ED/7vp3VFrEN3r40nvrUmAAAgj2aC1ueXB61a4Jqci12ZWgirfe7i94phXbN3810xcvPTAcQFAQvmyQLWc8fOxlj1/BWfu33LqvjJPWs9bRAAAOapBbHM/GOO88PX+LyP1/aCLfyaxb+/vJFsz3S8+sm2R2eOpwICFizqxO+/mIlYk1PnY8NgX+y8blUMD1YCAADojfmhLLNwJ9jCGDZ/muzi98xNlV32sbmjllf8XQu+99Lf0dmotvPqbbF389/OBCzgIgELAAAAWlXbTbbo51ZYwF+LZdmy9tndaMACAhYAAAAASbvQFwAAAACQMAELAAAAgKQJWAAAAAAkTcACAAAAIGkCFgAAAABJE7AAAAAASJqABQAAAEDSBCwAAAAAkiZgAQAAAJA0AQsAAACApAlYAAAAACRNwAIAAAAgaQIWAAAAAEkTsAAAAABImoAFAAAAQNIELAAAAACSJmABAAAAkDQBCwAAAICkCVgAAAAAJE3AAgAAACBpAhYAAAAASROwAAAAAEiagAUAAABA0gQsAAAAAJImYAEAAACQNAELAAAAgKQJWAAAAAAkTcACAAAAIGkCFgAAAABJE7AAAAAASJqABQAAAEDSBCwAAAAAkiZgAQAAAJA0AQsAAACApAlYAAAAACRNwAIAAAAgaQIWAAAAAEkTsAAAAABImoAFAAAAQNIELAAAAACSJmABAAAAkDQBCwAAAICkCVgAAAAAJE3AAgAAACBpAhYAAAAASROwAAAAAEiagAUAAABA0gQsAAAAAJImYAEAAACQNAELAAAAgKQJWAAAAAAkTcACAAAAIGkCFgAAAABJE7AAAAAASJqABQAAAEDSBCwAAAAAkiZgAQAAAJA0AQsAAACApAlYAAAAACRNwAIAAAAgaQIWAAAAAEkTsAAAAABImoAFAAAAQNIELAAAAACSJmABAAAAkDQBCwAAAICkCVgAAAAAJE3AAgAAACBpAhYAAAAASROwAAAAAEiagAUAAABA0gQsAAAAAJImYAEAAACQNAELAAAAgKQJWAAAAAAkTcACAAAAIGkCFgAAAABJE7AAAAAASJqABQAAAEDSBCwAAAAAkiZgAQAAAJA0AQsAAACApAlYAAAAACRNwAIAAAAgaQIWAAAAAEkTsAAAAABImoAFAAAAQNIELAAAAACSJmABAAAAkDQBCwAAAICkCVgAAAAAJE3AAgAAACBpAhYAAAAASROwAAAAAEiagAUAAABA0gQsAAAAAJImYAEAAACQNAELAAAAgKQJWAAAAAAkTcACAAAAIGkCFgAAAABJE7AAAAAASJqABQAAAEDSBCwAAAAAkiZgAQAAAJA0AQsAAACApAlYAAAAACRNwAIAAAAgaQIWAAAAAEkTsAAAAABImoAFAAAAQNIELAAAAACSJmABAAAAkDQBCwAAAICkCVgAAAAAJE3AAgAAACBpAhYAAAAASROwAAAAAEiagAUAAABA0gQsAAAAAJImYAEAAACQNAELAAAAgKQJWAAAAAAkTcACAAAAIGkCFgAAAABJE7AAAAAASJqABQAAAEDSBCwAAAAAkiZgAQAAAJA0AQsAAACApAlYAAAAACRNwAIAAAAgaQIWAAAAAEkTsAAAAABImoAFAAAAQNIELAAAAACSJmABAAAAkDQBCwAAAICkCVgAAAAAJE3AAgAAACBpAhYAAAAASROwAAAAAEiagAUAAABA0gQsAAAAAJImYAEAAACQNAELAAAAgKQJWAAAAAAkTcACAAAAIGkCFgAAAABJE7AAAAAASJqABQAAAEDSBCwAAAAAkiZgAQAAAJA0AQsAAACApAlYAAAAACRNwAIAAAAgaQIWAAAAAEkTsAAAAABImoAFAAAAQNIELAAAAACSJmABAAAAkDQBCwAAAICkCVgAAAAAJE3AAgAAACBpAhYAAAAASROwAAAAAEiagAUAAABA0gQsAAAAAJImYAEAAACQNAELAAAAgKQJWAAAAAAkTcACAAAAIGkCFgAAAABJE7AAAAAASJqABQAAAEDSBCwAAAAAkiZgAQAAAJA0AQsAAACApAlYAAAAACRNwAIAAAAgaQIWAAAAAEkTsAAAAABImoAFAAAAQNIELAAAAACSJmABAAAAkDQBCwAAAICkCVgAAAAAJE3AAgAAACBpAhYAAAAASROwAAAAAEjaqunXhQAAAACANF34D2axEdyDQlzAAAAAAElFTkSuQmCC;" vertex="1" parent="1">
          <mxGeometry x="460" y="970" width="160" height="160" as="geometry" />
        </mxCell>
      </root>
    </mxGraphModel>
  </diagram>
</mxfile>
